<svg width="38" height="23" viewBox="0 0 38 23" fill="none" xmlns="http://www.w3.org/2000/svg">
<path d="M19 11C14.6256 16.8223 7.76817 20.6724 0 20.9779V22.9779C7.76817 22.6724 14.6256 18.8223 19 13C23.3744 18.8223 30.2318 22.6724 38 22.9779V20.9779C30.2318 20.6724 23.3744 16.8223 19 11Z" fill="black"/>
<path d="M19 10C14.6256 15.8223 7.76817 19.6724 0 19.9779V21.9779C7.76817 21.6724 14.6256 17.8223 19 12C23.3744 17.8223 30.2318 21.6724 38 21.9779V19.9779C30.2318 19.6724 23.3744 15.8223 19 10Z" fill="black"/>
<path d="M19 9C14.6256 14.8223 7.76817 18.6724 0 18.9779V20.9779C7.76817 20.6724 14.6256 16.8223 19 11C23.3744 16.8223 30.2318 20.6724 38 20.9779V18.9779C30.2318 18.6724 23.3744 14.8223 19 9Z" fill="black" fill-opacity="0.2"/>
</svg>
