<svg viewBox="0 0 80 80" fill="none" xmlns="http://www.w3.org/2000/svg">
    <path d="M30 43.3333C31.841 43.3333 33.3333 41.8409 33.3333 40C33.3333 38.159 31.841 36.6667 30 36.6667C28.1591 36.6667 26.6667 38.159 26.6667 40C26.6667 41.8409 28.1591 43.3333 30 43.3333Z" stroke="current" stroke-width="5" stroke-linecap="round" stroke-linejoin="round" />
    <path d="M50 43.3333C51.841 43.3333 53.3333 41.8409 53.3333 40C53.3333 38.159 51.841 36.6667 50 36.6667C48.1591 36.6667 46.6667 38.159 46.6667 40C46.6667 41.8409 48.1591 43.3333 50 43.3333Z" stroke="current" stroke-width="5" stroke-linecap="round" stroke-linejoin="round" />
    <path d="M25 25C36.6667 21.6667 43.3333 21.6667 55 25" stroke="current" stroke-width="current" stroke-linecap="round" stroke-linejoin="round" />
    <path d="M23.3333 55C35 58.3333 45 58.3333 56.6667 55" stroke="current" stroke-width="current" stroke-linecap="round" stroke-linejoin="round" />
    <path d="M51.6667 56.6667C51.6667 60 56.6667 66.6667 58.3333 66.6667C63.3333 66.6667 67.7767 61.11 70 56.6667C72.2233 51.11 71.6667 37.2233 65 18.3333C60.1433 14.95 55 13.8667 50 13.3333L46.6667 21.6667" stroke="current" stroke-width="current" stroke-linecap="round" stroke-linejoin="round" />
    <path d="M28.3333 56.6667C28.3333 60 23.8133 66.6667 22.2267 66.6667C17.4633 66.6667 13.2333 61.11 11.1167 56.6667C9 51.11 9.53 37.2233 15.8767 18.3333C20.5033 14.95 25.15 13.8667 30 13.3333L33.3333 21.6667" stroke="current" stroke-width="current" stroke-linecap="round" stroke-linejoin="round" />
</svg>
