<svg width="202" height="154" viewBox="0 0 202 154" fill="none" xmlns="http://www.w3.org/2000/svg">
<path fill-rule="evenodd" clip-rule="evenodd" d="M57.8584 32.3058C42.1119 31.7618 28.2767 43.3271 26.2927 59.2629L19.788 111.51C17.6882 128.376 29.6586 143.75 46.5246 145.85C63.3906 147.95 78.7654 135.98 80.8652 119.114L82.5725 105.4L131.236 92.3605L139.572 103.383C149.823 116.94 169.123 119.619 182.68 109.367C196.236 99.116 198.916 79.8159 188.664 66.2594L156.908 24.2648C147.221 11.4559 129.457 8.35768 116.092 16.7021L57.8584 32.3058ZM123.748 34.3185L130.334 32.5537L134.217 47.0434L127.63 48.8082L123.748 34.3185ZM138.099 61.5331L131.513 63.2978L135.395 77.7875L141.982 76.0227L138.099 61.5331ZM153.717 46.0538L155.482 52.64L140.992 56.5225L139.227 49.9362L153.717 46.0538ZM126.502 60.405L124.738 53.8187L110.248 57.7012L112.013 64.2875L126.502 60.405ZM67.5609 57.1388C68.6331 61.14 66.2586 65.2527 62.2573 66.3248C58.2561 67.3969 54.1434 65.0224 53.0713 61.0212C51.9991 57.02 54.3736 52.9073 58.3748 51.8352C62.3761 50.763 66.4888 53.1375 67.5609 57.1388ZM70.0223 95.3042C74.0235 94.232 76.398 90.1193 75.3259 86.1181C74.2538 82.1169 70.1411 79.7424 66.1398 80.8145C62.1386 81.8866 59.7641 85.9994 60.8363 90.0006C61.9084 94.0018 66.0211 96.3763 70.0223 95.3042ZM80.6295 76.932C76.6283 78.0041 72.5155 75.6296 71.4434 71.6284C70.3713 67.6272 72.7458 63.5145 76.747 62.4423C80.7482 61.3702 84.861 63.7447 85.9331 67.7459C87.0052 71.7471 84.6307 75.8599 80.6295 76.932ZM42.4641 79.3934C43.5362 83.3946 47.649 85.7691 51.6502 84.697C55.6514 83.6249 58.0259 79.5121 56.9538 75.5109C55.8816 71.5097 51.7689 69.1352 47.7677 70.2073C43.7665 71.2794 41.392 75.3922 42.4641 79.3934Z" fill="white"/>
</svg>
