<svg xmlns="http://www.w3.org/2000/svg" viewBox="0 0 1237.9 152.51"><defs><style>.cls-1{fill:#9dbea2;}.cls-2{fill-opacity:0.1;}.cls-3{fill:#bb9a83;}.cls-4{fill:#a4846f;}.cls-5{fill:#456e4c;}.cls-6{fill:#518058;}.cls-10,.cls-11,.cls-12,.cls-13,.cls-7,.cls-8,.cls-9{fill:none;stroke:#000;stroke-linecap:round;stroke-linejoin:round;}.cls-7{stroke-width:2px;}.cls-8{stroke-width:2px;}.cls-9{stroke-width:2px;}.cls-10{stroke-width:2px;}.cls-11{stroke-width:2px;}.cls-12{stroke-width:2px;}.cls-13{stroke-width:2px;}</style></defs><g id="Layer_2" data-name="Layer 2"><g id="HillTop"><g id="hillsTop_0_Layer0_0_FILL" data-name="hillsTop 0 Layer0 0 FILL"><path d="M241.15,71.46a1.44,1.44,0,0,0-1.92-.4,2.74,2.74,0,0,0-.48.36L235,75.23a1.5,1.5,0,0,0,0,2.39l.73.69-3.08,3.08a2.2,2.2,0,0,0,0,3.56l1.16,1.16-3,3q-1.89,1.89-.51,3.81a48.11,48.11,0,0,0,7.18.91v1.92c0,1,.59,1.56,1.7,1.56H241a1.49,1.49,0,0,0,1.71-1.56V93.8a54.33,54.33,0,0,0,5.65-.66c.44-.07.88-.15,1.31-.25q1.34-1.92-.54-3.81l-3-3L247.31,85a2.22,2.22,0,0,0,0-3.56l-3.08-3.08.69-.69a1.49,1.49,0,0,0,0-2.39Z"/></g><g id="hillsTop_0_Layer0_1_FILL" data-name="hillsTop 0 Layer0 1 FILL"><path d="M224.65,60.56A2,2,0,0,0,222,60a3.05,3.05,0,0,0-.65.5l-5.2,5.25a2.06,2.06,0,0,0,0,3.3l1,1-4.25,4.25q-2.51,2.44,0,4.9l1.6,1.6-4.15,4.1c-1.73,1.73-2,3.48-.7,5.25a67.33,67.33,0,0,0,9.9,1.25V94a2.06,2.06,0,0,0,2.35,2.2h2.55A2,2,0,0,0,226.8,94V91.36q3.9-.26,7.8-.9c.6-.1,1.2-.22,1.8-.35q1.84-2.65-.75-5.25l-4.1-4.1,1.6-1.6q2.44-2.46,0-4.9L228.9,70l.95-1a2.06,2.06,0,0,0,0-3.3Z"/></g><g id="hillsTop_0_Layer0_2_FILL" data-name="hillsTop 0 Layer0 2 FILL"><path d="M624.6,73.61a1.44,1.44,0,0,0-1.92-.4,2.74,2.74,0,0,0-.48.36l-3.77,3.81a1.5,1.5,0,0,0,0,2.39l.73.69-3.08,3.08a2.2,2.2,0,0,0,0,3.56l1.16,1.16-3,3q-1.89,1.89-.51,3.81a48.11,48.11,0,0,0,7.18.91v1.92c0,1,.59,1.56,1.7,1.56h1.85a1.49,1.49,0,0,0,1.71-1.56V96a54.33,54.33,0,0,0,5.65-.66c.44-.07.88-.15,1.31-.25q1.33-1.92-.54-3.81l-3-3,1.16-1.16a2.22,2.22,0,0,0,0-3.56l-3.08-3.08.69-.69a1.49,1.49,0,0,0,0-2.39Z"/></g><g id="hillsTop_0_Layer0_3_FILL" data-name="hillsTop 0 Layer0 3 FILL"><path d="M606.1,65.71a2,2,0,0,0-2.65-.55,3.05,3.05,0,0,0-.65.5l-5.2,5.25a2.06,2.06,0,0,0,0,3.3l1,1-4.25,4.25q-2.51,2.45,0,4.9l1.6,1.6L591.8,90c-1.73,1.73-2,3.48-.7,5.25a67.33,67.33,0,0,0,9.9,1.25v2.6a2.06,2.06,0,0,0,2.35,2.2h2.55a2,2,0,0,0,2.35-2.15V96.51q3.9-.26,7.8-.9c.6-.1,1.2-.22,1.8-.35q1.85-2.66-.75-5.25l-4.1-4.1,1.6-1.6q2.45-2.46,0-4.9l-4.25-4.25.95-1a2.06,2.06,0,0,0,0-3.3Z"/></g><g id="hillsTop_0_Layer0_4_FILL" data-name="hillsTop 0 Layer0 4 FILL"><path d="M1017.5,25.71a1.44,1.44,0,0,0-1.92-.4,2.74,2.74,0,0,0-.48.36l-3.77,3.81a1.5,1.5,0,0,0,0,2.39l.73.69L1009,35.64a2.2,2.2,0,0,0,0,3.56l1.16,1.16-3,3q-1.89,1.89-.51,3.81a48.11,48.11,0,0,0,7.18.91V50c0,1,.59,1.56,1.7,1.56h1.85a1.49,1.49,0,0,0,1.71-1.56V48.05a54.33,54.33,0,0,0,5.65-.66c.44-.07.88-.15,1.31-.25q1.34-1.92-.54-3.81l-3-3,1.16-1.16a2.22,2.22,0,0,0,0-3.56l-3.08-3.08.69-.69a1.49,1.49,0,0,0,0-2.39Z"/></g><g id="hillsTop_0_Layer0_5_FILL" data-name="hillsTop 0 Layer0 5 FILL"><path id="Hill" d="M0,150.51H1237.9V42.56q-54.75-5.2-110-5.5-52.7-.26-105.4,3.65-48.4,3.75-96.7,10Q869,58.2,812.15,67.16l-13.75,2q-57.35,8.45-114.9,15.15-54.64,6.5-109.4,10.1t-109.55,6.1q-55.6,1.35-111.25-1.05A840.39,840.39,0,0,1,237,84.41Q182.55,73.51,128.2,62A1091.86,1091.86,0,0,0,10.25,43.41c-3.43-.3-6.85-.59-10.25-.85V60.91"/></g><g id="hillsTop_0_Layer0_5_FILL-2" data-name="hillsTop 0 Layer0 5 FILL"><path id="Hill-2" data-name="Hill" class="cls-1" d="M0,152.51H1237.9V44.56q-54.75-5.2-110-5.5-52.7-.26-105.4,3.65-48.4,3.75-96.7,10Q869,60.2,812.15,69.16l-13.75,2q-57.35,8.45-114.9,15.15-54.64,6.5-109.4,10.1t-109.55,6.1q-55.6,1.35-111.25-1.05A840.39,840.39,0,0,1,237,86.41Q182.55,75.51,128.2,64A1091.86,1091.86,0,0,0,10.25,45.41c-3.43-.3-6.85-.59-10.25-.85V62.91"/></g><g id="hillsTop_0_Layer0_6_FILL" data-name="hillsTop 0 Layer0 6 FILL"><path class="cls-2" d="M1237.9,64.56v-20q-46.61-4-93.45-4.65a1341.79,1341.79,0,0,0-165.7,7.65q-66,7.44-132,16.65-56.1,8.15-112.3,15.85Q648.3,91.85,561.55,98q-61.95,4.24-124.1,5.6-45.56.94-91-2.65a886.35,886.35,0,0,1-100.3-13.65Q187,75.61,128.1,63.86,64.55,51.26,0,44.56V63l13.85.4a960.23,960.23,0,0,1,109.5,10.25A962.88,962.88,0,0,1,231,96.56Q288.2,112.16,346.55,122a700.41,700.41,0,0,0,121.85,10,775.09,775.09,0,0,0,109-8.3Q635,115,691.65,101.41q54.26-13.2,109.2-23.15,57.9-10.16,116-16.6,54.2-5.85,108.75-8.15,53.51-2,107.1.65Q1185.61,56.91,1237.9,64.56Z"/></g><g id="hillsTop_0_Layer0_7_MEMBER_0_FILL" data-name="hillsTop 0 Layer0 7 MEMBER 0 FILL"><path class="cls-2" d="M1132,55.46a86,86,0,0,0-26,0q-5.39,1-5.38,2.45c0,1,1.79,1.75,5.38,2.42a70.16,70.16,0,0,0,13,1,70.28,70.28,0,0,0,13-1c3.59-.67,5.38-1.47,5.38-2.42S1135.56,56.15,1132,55.46Z"/></g><g id="hillsTop_0_Layer0_7_MEMBER_1_FILL" data-name="hillsTop 0 Layer0 7 MEMBER 1 FILL"><path class="cls-3" d="M1123,52h-1.11q-4.19.07-8.32-.11v2.49c0,2.37,1.22,3.56,3.64,3.56h2.38q3.4-.07,3.41-3.56Z"/><path class="cls-4" d="M1124.76,50.53a17.14,17.14,0,0,1-1.76.08h-1.11c-2.79.1-5.56.08-8.32-.08v1.35q4.14.18,8.32.11H1123v2.38q0,3.48-3.41,3.56h1.53q3.64,0,3.64-3.56Z"/><path class="cls-5" d="M1121.47,3q-2.07-2.07-4.14-.81L1126.6,11q2.54,2.56,0,5.14l-1.53,1.45,6.55,6.59q3.79,3.8,0,7.56l-2.45,2.49,6.32,6.32q4,4,1.15,8l.12.54c.92-.16,1.85-.34,2.8-.54q2.84-4-1.19-8l-6.33-6.32,2.5-2.49q3.8-3.76,0-7.56L1128,17.57l1.46-1.45q2.54-2.58,0-5.14Z"/><path id="Tree" class="cls-6" d="M1108.32,11q-2.53,2.56,0,5.14l1.5,1.45-6.52,6.56q-3.84,3.82,0,7.59l2.49,2.49-6.36,6.32q-4,4-1.15,8a99.82,99.82,0,0,0,15.33,2c2.76.16,5.53.18,8.32.08H1123a17.14,17.14,0,0,0,1.76-.08,111.87,111.87,0,0,0,12-1.41l-.12-.54q2.88-4-1.15-8l-6.32-6.32,2.45-2.49q3.79-3.76,0-7.56l-6.55-6.59,1.53-1.45q2.49-2.58,0-5.14l-9.27-8.82a5.59,5.59,0,0,0-1,.77Z"/></g><path id="hillsTop_0_Layer0_7_MEMBER_1_1_STROKES" data-name="hillsTop 0 Layer0 7 MEMBER 1 1 STROKES" class="cls-7" d="M1117.34,2.13a5.59,5.59,0,0,0-1,.77l-8.05,8q-2.52,2.57,0,5.13l1.5,1.46-6.52,6.56q-3.82,3.82,0,7.58l2.49,2.5-6.36,6.32q-4,4-1.15,8a99.82,99.82,0,0,0,15.33,2c2.76.16,5.54.18,8.32.08H1123c.59,0,1.18,0,1.77-.08a112,112,0,0,0,12-1.41M1121.48,2.94q-2.07-2.07-4.14-.81M1129.49,11l-8-8m8,13.14q2.54-2.56,0-5.13M1128,17.54l1.46-1.46m5.1,8.05L1128,17.54m6.56,14.14q3.79-3.75,0-7.55m-2.49,10.05,2.49-2.5m3.83,8.82-6.32-6.32m7.51,14.37q2.84-4-1.19-8m-1.61,8.59c.92-.16,1.85-.34,2.8-.54m-20,9.35h1.53q3.64,0,3.65-3.56V50.5m-7.56,7.4h2.38m-6-3.56c0,2.37,1.22,3.56,3.64,3.56m-3.64-6.06v2.5m0-3.84v1.34"/><g id="hillsTop_0_Layer0_8_MEMBER_0_FILL" data-name="hillsTop 0 Layer0 8 MEMBER 0 FILL"><path class="cls-2" d="M1165,60.3a93.83,93.83,0,0,0-28.65,0c-4,.76-5.93,1.66-5.93,2.7s2,1.93,5.93,2.66a77.13,77.13,0,0,0,14.32,1.14A77.17,77.17,0,0,0,1165,65.66q5.92-1.09,5.93-2.66T1165,60.3Z"/></g><g id="hillsTop_0_Layer0_8_MEMBER_1_FILL" data-name="hillsTop 0 Layer0 8 MEMBER 1 FILL"><path class="cls-3" d="M1155.19,56.41H1154c-3.06.05-6.12,0-9.15-.13V59c0,2.62,1.33,3.93,4,3.93h2.61q3.77-.09,3.76-3.93Z"/><path class="cls-4" d="M1157.13,54.8c-.65.06-1.29.09-1.94.09H1154c-3.06.11-6.12.08-9.15-.09v1.48c3,.14,6.09.18,9.15.13h1.23V59q0,3.84-3.76,3.93h1.69q4,0,4-3.93Z"/><path class="cls-5" d="M1153.5,2.43q-2.28-2.28-4.56-.89l10.22,9.71c1.85,1.88,1.87,3.77,0,5.65l-1.69,1.61,7.22,7.26q4.17,4.17,0,8.31l-2.7,2.74,7,7q4.42,4.43,1.27,8.86l.12.59c1-.17,2-.36,3.08-.59q3.12-4.42-1.31-8.86l-7-7,2.74-2.74q4.18-4.14,0-8.31l-7.21-7.26,1.6-1.61c1.86-1.88,1.86-3.77,0-5.65Z"/><path id="Tree-2" data-name="Tree" class="cls-6" d="M1139,11.25c-1.85,1.88-1.85,3.77,0,5.65l1.65,1.61-7.17,7.22q-4.23,4.22,0,8.35l2.75,2.74-7,7q-4.43,4.43-1.27,8.86a111.16,111.16,0,0,0,16.89,2.15c3,.17,6.09.2,9.15.09h1.23c.65,0,1.29,0,1.94-.09a124.55,124.55,0,0,0,13.25-1.56l-.12-.59q3.16-4.42-1.27-8.86l-7-7,2.7-2.74q4.17-4.14,0-8.31l-7.22-7.26,1.69-1.61c1.83-1.88,1.81-3.77,0-5.65l-10.22-9.71a5.84,5.84,0,0,0-1,.85Z"/></g><path id="hillsTop_0_Layer0_8_MEMBER_1_1_STROKES" data-name="hillsTop 0 Layer0 8 MEMBER 1 1 STROKES" class="cls-8" d="M1149,1.53a5.43,5.43,0,0,0-1.06.84l-8.86,8.87c-1.86,1.88-1.86,3.77,0,5.65l1.65,1.6-7.18,7.22q-4.21,4.21,0,8.36l2.74,2.74-7,7q-4.44,4.44-1.27,8.87a111.19,111.19,0,0,0,16.88,2.15q4.56.26,9.16.08h1.22c.65,0,1.3,0,2-.08a124.86,124.86,0,0,0,13.25-1.56M1153.53,2.41c-1.52-1.51-3-1.81-4.56-.88m13.38,9.71-8.82-8.83m8.82,14.48c1.85-1.88,1.85-3.77,0-5.65m-1.61,7.25,1.61-1.6m5.61,8.86-7.22-7.26M1168,34.07q4.17-4.14,0-8.32m-2.74,11.06,2.74-2.74m4.22,9.7-7-7m8.27,15.83q3.12-4.44-1.31-8.87m-1.77,9.46c1-.17,2-.37,3.08-.59m-22,10.3h1.69q4,0,4-3.93V54.79m-8.32,8.15h2.62M1144.83,59q0,3.93,4,3.93m-4-6.67V59m0-4.22v1.48"/><g id="hillsTop_0_Layer0_9_MEMBER_0_FILL" data-name="hillsTop 0 Layer0 9 MEMBER 0 FILL"><path class="cls-2" d="M1007.36,54.68a55.84,55.84,0,0,0-16.86,0c-2.33.45-3.49,1-3.49,1.59s1.16,1.13,3.49,1.57a53.37,53.37,0,0,0,16.86,0c2.32-.44,3.48-1,3.48-1.57S1009.68,55.13,1007.36,54.68Z"/></g><g id="hillsTop_0_Layer0_9_MEMBER_1_FILL" data-name="hillsTop 0 Layer0 9 MEMBER 1 FILL"><path class="cls-3" d="M1001.55,52.45h-.72c-1.81,0-3.6,0-5.39-.07V54a2.06,2.06,0,0,0,2.36,2.31h1.54a2,2,0,0,0,2.21-2.31Z"/><path class="cls-4" d="M1002.69,51.51c-.38,0-.76.05-1.14.05h-.72c-1.81.06-3.6,0-5.39-.05v.87c1.79.08,3.58.1,5.39.07h.72V54a2,2,0,0,1-2.21,2.31h1a2.07,2.07,0,0,0,2.36-2.31Z"/><path class="cls-5" d="M1000.55,20.7a2,2,0,0,0-2.68-.52l6,5.71a2.1,2.1,0,0,1,0,3.32l-1,.95,4.25,4.27c1.64,1.63,1.64,3.27,0,4.89l-1.59,1.61,4.09,4.1c1.74,1.74,2,3.47.75,5.21l.07.35c.6-.1,1.2-.22,1.82-.35,1.22-1.74,1-3.47-.77-5.21l-4.1-4.1,1.61-1.61c1.64-1.62,1.64-3.26,0-4.89l-4.24-4.27.94-.95a2.09,2.09,0,0,0,0-3.32Z"/><path id="Tree-3" data-name="Tree" class="cls-6" d="M992,25.89a2.08,2.08,0,0,0,0,3.32l1,.95-4.23,4.24q-2.47,2.49,0,4.92l1.61,1.61L986.25,45c-1.74,1.74-2,3.47-.74,5.21a65.48,65.48,0,0,0,9.93,1.27c1.79.1,3.58.11,5.39.05h.72c.38,0,.76,0,1.14-.05a73.81,73.81,0,0,0,7.79-.92l-.07-.35c1.24-1.74,1-3.47-.75-5.21l-4.09-4.1,1.59-1.61c1.64-1.62,1.64-3.26,0-4.89l-4.25-4.27,1-.95a2.1,2.1,0,0,0,0-3.32l-6-5.71a3.41,3.41,0,0,0-.62.49Z"/></g><path id="hillsTop_0_Layer0_9_MEMBER_1_1_STROKES" data-name="hillsTop 0 Layer0 9 MEMBER 1 1 STROKES" class="cls-7" d="M997.88,20.15a4,4,0,0,0-.62.5l-5.21,5.21a2.1,2.1,0,0,0,0,3.33l1,.94-4.22,4.25q-2.49,2.48,0,4.91l1.62,1.62L986.26,45q-2.6,2.61-.74,5.22a64.21,64.21,0,0,0,9.93,1.26c1.79.1,3.58.12,5.39.05h.72a10.87,10.87,0,0,0,1.14-.05,74,74,0,0,0,7.8-.91m-9.94-29.9a2,2,0,0,0-2.68-.52m7.87,5.71-5.19-5.19m5.19,8.52a2.09,2.09,0,0,0,0-3.33m-.94,4.27.94-.94m3.31,5.21-4.25-4.27m4.25,9.16q2.45-2.43,0-4.89m-1.62,6.51,1.62-1.62m2.48,5.71-4.1-4.09m4.87,9.31c1.22-1.74,1-3.48-.77-5.22m-1,5.57c.59-.1,1.2-.22,1.81-.35m-13,6.06h1A2.07,2.07,0,0,0,1002.7,54V51.48m-4.89,4.8h1.54M995.45,54a2.07,2.07,0,0,0,2.36,2.31m-2.36-3.93V54m0-2.49v.87"/><g id="hillsTop_0_Layer0_10_MEMBER_0_FILL" data-name="hillsTop 0 Layer0 10 MEMBER 0 FILL"><path class="cls-2" d="M969.94,63.31a79.24,79.24,0,0,0-24.08,0q-5,1-5,2.27t5,2.23a76,76,0,0,0,24.08,0q5-.91,5-2.23T969.94,63.31Z"/></g><g id="hillsTop_0_Layer0_10_MEMBER_1_FILL" data-name="hillsTop 0 Layer0 10 MEMBER 1 FILL"><path class="cls-3" d="M961.67,60.11h-1q-3.87.07-7.69-.1v2.3q0,3.3,3.36,3.3h2.2q3.16-.08,3.16-3.3Z"/><path class="cls-4" d="M961.67,58.84h-1q-3.87.13-7.69-.07V60q3.82.18,7.69.1h1v2.2q0,3.22-3.16,3.3h1.42q3.38,0,3.37-3.3V58.77C962.75,58.81,962.21,58.84,961.67,58.84Z"/><path class="cls-5" d="M960.25,14.77c-1.28-1.28-2.55-1.53-3.83-.75L965,22.18q2.34,2.37,0,4.75l-1.42,1.35,6.06,6.09q3.51,3.51,0,7l-2.27,2.3,5.85,5.85Q977,53.23,974.32,57l.11.49c.85-.14,1.71-.3,2.59-.49q2.63-3.72-1.1-7.45l-5.85-5.85,2.3-2.3q3.51-3.48,0-7l-6.06-6.09,1.35-1.35q2.34-2.38,0-4.75Z"/><path id="Tree-4" data-name="Tree" class="cls-6" d="M948.09,22.18q-2.34,2.37,0,4.75l1.38,1.35-6,6.06q-3.54,3.54,0,7l2.3,2.3-5.88,5.85q-3.72,3.72-1.07,7.45A93.68,93.68,0,0,0,953,58.77q3.82.21,7.69.07h1c.54,0,1.08,0,1.63-.07a105.49,105.49,0,0,0,11.13-1.32l-.11-.49q2.67-3.72-1.06-7.45l-5.85-5.85,2.27-2.3q3.51-3.48,0-7l-6.06-6.09L965,26.93q2.3-2.38,0-4.75L956.42,14a5.23,5.23,0,0,0-.89.71Z"/></g><path id="hillsTop_0_Layer0_10_MEMBER_1_1_STROKES" data-name="hillsTop 0 Layer0 10 MEMBER 1 1 STROKES" class="cls-9" d="M956.45,14a4.87,4.87,0,0,0-.89.71l-7.45,7.45q-2.34,2.37,0,4.75l1.39,1.34-6,6.07q-3.54,3.54,0,7l2.31,2.3-5.89,5.85q-3.72,3.72-1.06,7.45A92.12,92.12,0,0,0,953,58.73c2.55.15,5.12.17,7.69.08h1c.55,0,1.09,0,1.63-.08a103.07,103.07,0,0,0,11.14-1.31M960.27,14.74c-1.27-1.28-2.55-1.53-3.82-.75m11.23,8.16-7.41-7.41m7.41,12.16q2.34-2.38,0-4.75m-1.34,6.09,1.34-1.34m4.72,7.44-6.06-6.1m6.06,13.09q3.51-3.48,0-7m-2.3,9.29,2.3-2.3M976,49.48l-5.85-5.85M977,56.93q2.63-3.72-1.09-7.45m-1.49,7.94c.85-.14,1.71-.3,2.58-.49m-18.5,8.65H960q3.36,0,3.36-3.3V58.73m-7,6.85h2.2M953,62.28q0,3.3,3.37,3.3M953,60v2.3m0-3.55V60"/><g id="hillsTop_0_Layer0_11_MEMBER_0_FILL" data-name="hillsTop 0 Layer0 11 MEMBER 0 FILL"><path class="cls-2" d="M1208.37,90.62a114.75,114.75,0,0,0-34.84,0c-4.81.93-7.21,2-7.21,3.29s2.4,2.34,7.21,3.23a109.85,109.85,0,0,0,34.84,0q7.22-1.33,7.21-3.23C1215.58,92.64,1213.18,91.55,1208.37,90.62Z"/></g><g id="hillsTop_0_Layer0_11_MEMBER_1_FILL" data-name="hillsTop 0 Layer0 11 MEMBER 1 FILL"><path class="cls-3" d="M1196.62,85.84h-1.49q-5.6.1-11.13-.15V89c0,3.18,1.62,4.78,4.87,4.78h3.18q4.58-.1,4.57-4.78Z"/><path class="cls-4" d="M1199,83.89c-.79.07-1.57.1-2.36.1h-1.49q-5.6.21-11.13-.1v1.8q5.54.25,11.13.15h1.49V89q0,4.68-4.57,4.78h2.06c3.25,0,4.87-1.6,4.87-4.78Z"/><path class="cls-5" d="M1194.57,20.2q-2.77-2.77-5.54-1.08l12.42,11.81q3.38,3.43,0,6.87l-2.06,2,8.78,8.83q5.08,5.09,0,10.11L1204.93,62l8.47,8.47q5.4,5.39,1.54,10.77l.16.72c1.23-.2,2.48-.44,3.74-.72q3.79-5.38-1.59-10.77L1208.78,62l3.34-3.34q5.09-5,0-10.11l-8.78-8.83,2-2q3.39-3.44,0-6.87Z"/><path id="Tree-5" data-name="Tree" class="cls-6" d="M1177,30.93q-3.37,3.43,0,6.87l2,2-8.73,8.78q-5.13,5.13,0,10.16l3.34,3.34L1165,70.5q-5.4,5.39-1.54,10.77A133.61,133.61,0,0,0,1184,83.89q5.54.31,11.13.1h1.49c.79,0,1.57,0,2.36-.1A152.88,152.88,0,0,0,1215.1,82l-.16-.72q3.86-5.38-1.54-10.77L1204.93,62l3.29-3.34q5.08-5,0-10.11l-8.78-8.83,2.06-2q3.33-3.44,0-6.87L1189,19.12a7.2,7.2,0,0,0-1.29,1Z"/></g><path id="hillsTop_0_Layer0_11_MEMBER_1_1_STROKES" data-name="hillsTop 0 Layer0 11 MEMBER 1 1 STROKES" class="cls-10" d="M1189.06,19.12a6.73,6.73,0,0,0-1.28,1L1177,30.93q-3.39,3.43,0,6.87l2,2-8.72,8.78q-5.15,5.13-.06,10.16l3.34,3.34L1165,70.49q-5.38,5.4-1.54,10.78A134.86,134.86,0,0,0,1184,83.89c3.69.2,7.41.24,11.14.1h1.48c.79,0,1.58,0,2.37-.1a152.39,152.39,0,0,0,16.11-1.9M1194.6,20.2c-1.85-1.85-3.69-2.21-5.54-1.08m16.27,11.81L1194.6,20.2m10.73,17.6q3.39-3.44,0-6.87m-1.95,8.82,1.95-2m6.82,10.78-8.77-8.83m8.77,18.94q5.08-5,0-10.11M1208.82,62l3.33-3.34m5.14,11.8L1208.82,62m10.06,19.24q3.8-5.38-1.59-10.78M1215.13,82q1.84-.31,3.75-.72m-26.79,12.52h2.05q4.88,0,4.88-4.77V83.89m-10.11,9.9h3.18M1184,89c0,3.18,1.62,4.77,4.88,4.77M1184,85.68V89m0-5.13v1.79"/><g id="hillsTop_0_Layer0_12_MEMBER_0_FILL" data-name="hillsTop 0 Layer0 12 MEMBER 0 FILL"><path class="cls-2" d="M357.9,113.71a85.13,85.13,0,0,0-26,0q-5.38,1-5.39,2.45c0,1,1.8,1.75,5.39,2.42a82.68,82.68,0,0,0,26,0c3.59-.67,5.39-1.47,5.39-2.42S361.49,114.4,357.9,113.71Z"/></g><g id="hillsTop_0_Layer0_12_MEMBER_1_FILL" data-name="hillsTop 0 Layer0 12 MEMBER 1 FILL"><path class="cls-3" d="M348.94,110.24h-1.11q-4.18.08-8.32-.12v2.5q0,3.55,3.64,3.56h2.38q3.41-.08,3.41-3.56Z"/><path class="cls-4" d="M350.7,108.78c-.59,0-1.18.08-1.76.08h-1.11c-2.79.1-5.56.08-8.32-.08v1.34q4.14.19,8.32.12h1.11v2.38q0,3.48-3.41,3.56h1.53q3.65,0,3.64-3.56Z"/><path class="cls-5" d="M347.4,61.22q-2.07-2.07-4.14-.81l9.28,8.82q2.54,2.56,0,5.13L351,75.82l6.56,6.59q3.79,3.8,0,7.55l-2.45,2.5,6.32,6.32q4,4,1.15,8l.11.53c.92-.15,1.86-.33,2.8-.53q2.84-4-1.19-8L358,92.46l2.49-2.5q3.8-3.75,0-7.55L354,75.82l1.45-1.46q2.54-2.56,0-5.13Z"/><path id="Tree-6" data-name="Tree" class="cls-6" d="M334.26,69.23q-2.53,2.56,0,5.13l1.49,1.46-6.51,6.55q-3.84,3.84,0,7.59l2.49,2.5-6.36,6.32q-4,4-1.15,8a99.51,99.51,0,0,0,15.33,2c2.76.16,5.53.18,8.32.08h1.11c.58,0,1.17,0,1.76-.08a112,112,0,0,0,12-1.42l-.11-.53q2.88-4-1.15-8l-6.32-6.32L357.6,90q3.79-3.75,0-7.55L351,75.82l1.54-1.46q2.49-2.56,0-5.13l-9.28-8.82a5.18,5.18,0,0,0-.95.77Z"/></g><path id="hillsTop_0_Layer0_12_MEMBER_1_1_STROKES" data-name="hillsTop 0 Layer0 12 MEMBER 1 1 STROKES" class="cls-7" d="M343.26,60.45a5.15,5.15,0,0,0-1,.77l-8,8q-2.53,2.58,0,5.14l1.49,1.46-6.51,6.55q-3.84,3.84,0,7.59l2.49,2.49-6.36,6.33q-4,4-1.15,8a100.77,100.77,0,0,0,15.33,2q4.14.23,8.31.08h1.12c.58,0,1.17,0,1.76-.08a114.62,114.62,0,0,0,12-1.42M347.4,61.25c-1.38-1.38-2.76-1.64-4.14-.8m12.15,8.81-8-8m8,13.15q2.54-2.57,0-5.14M354,75.86l1.45-1.46m5.1,8L354,75.86M360.51,90q3.8-3.75,0-7.55m-2.49,10L360.51,90m3.83,8.82L358,92.49m7.51,14.37q2.84-4-1.19-8m-1.61,8.58c.92-.15,1.86-.33,2.8-.54m-20,9.36h1.54q3.65,0,3.64-3.57v-3.83m-7.55,7.4h2.37m-6-3.57q0,3.57,3.64,3.57m-3.64-6.06v2.49m0-3.83v1.34"/><g id="hillsTop_0_Layer0_13_MEMBER_0_FILL" data-name="hillsTop 0 Layer0 13 MEMBER 0 FILL"><path class="cls-2" d="M396.87,119.55a93.83,93.83,0,0,0-28.65,0q-5.93,1.14-5.93,2.7t5.93,2.66a90.57,90.57,0,0,0,28.65,0q5.92-1.09,5.93-2.66T396.87,119.55Z"/></g><g id="hillsTop_0_Layer0_13_MEMBER_1_FILL" data-name="hillsTop 0 Layer0 13 MEMBER 1 FILL"><path class="cls-3" d="M387.12,115.66H385.9q-4.61.07-9.16-.13v2.74q0,3.93,4,3.93h2.62q3.75-.09,3.75-3.93Z"/><path class="cls-4" d="M389.07,114.05q-1,.09-1.95.09H385.9q-4.61.17-9.16-.09v1.48q4.56.21,9.16.13h1.22v2.61q0,3.84-3.75,3.93h1.69q4,0,4-3.93Z"/><path class="cls-5" d="M385.44,61.68q-2.28-2.28-4.56-.89l10.21,9.71c1.86,1.88,1.87,3.77,0,5.65l-1.69,1.61L396.66,85q4.18,4.17,0,8.31L394,96.07l7,7q4.44,4.42,1.27,8.86l.13.59c1-.17,2-.37,3.08-.59q3.12-4.43-1.31-8.86l-7-7,2.74-2.74q4.17-4.14,0-8.31l-7.22-7.26,1.61-1.61c1.85-1.88,1.85-3.77,0-5.65Z"/><path id="Tree-7" data-name="Tree" class="cls-6" d="M371,70.5c-1.86,1.88-1.86,3.77,0,5.65l1.65,1.61L365.43,85q-4.21,4.23,0,8.36l2.74,2.74-7,7q-4.44,4.42-1.27,8.86a111.19,111.19,0,0,0,16.88,2.15q4.56.26,9.16.09h1.22q1,0,1.95-.09a124.86,124.86,0,0,0,13.25-1.56l-.13-.59q3.17-4.43-1.27-8.86l-7-7,2.7-2.74q4.18-4.14,0-8.31l-7.22-7.26,1.69-1.61c1.83-1.88,1.82-3.77,0-5.65l-10.21-9.71a5.9,5.9,0,0,0-1.06.85Z"/></g><path id="hillsTop_0_Layer0_13_MEMBER_1_1_STROKES" data-name="hillsTop 0 Layer0 13 MEMBER 1 1 STROKES" class="cls-11" d="M380.84,60.81a5.9,5.9,0,0,0-1.06.85l-8.86,8.86c-1.86,1.89-1.86,3.77,0,5.66l1.65,1.6L365.39,85q-4.22,4.22,0,8.35l2.74,2.75-7,7q-4.44,4.43-1.27,8.86a109.94,109.94,0,0,0,16.88,2.15q4.56.25,9.16.09h1.23c.64,0,1.29,0,1.94-.09a124.86,124.86,0,0,0,13.25-1.56M385.4,61.7c-1.52-1.52-3-1.81-4.56-.89m13.38,9.71L385.4,61.7m8.82,14.48c1.85-1.89,1.85-3.77,0-5.66m-1.61,7.26,1.61-1.6M399.83,85l-7.22-7.26m7.22,15.57c2.79-2.75,2.79-5.53,0-8.31M397.09,96.1l2.74-2.75m4.22,9.71-7-7m8.27,15.82q3.12-4.42-1.31-8.86m-1.77,9.45c1-.17,2-.36,3.08-.59m-22,10.3H385q4,0,4-3.93v-4.22m-8.32,8.15h2.62m-6.63-3.93q0,3.93,4,3.93m-4-6.67v2.74m0-4.22v1.48"/><g id="hillsTop_0_Layer0_14_MEMBER_0_FILL" data-name="hillsTop 0 Layer0 14 MEMBER 0 FILL"><path class="cls-2" d="M565.29,101.63a54.93,54.93,0,0,0-16.85,0c-2.33.44-3.49,1-3.49,1.59s1.16,1.13,3.49,1.56a53.31,53.31,0,0,0,16.85,0c2.33-.43,3.49-1,3.49-1.56S567.62,102.07,565.29,101.63Z"/></g><g id="hillsTop_0_Layer0_14_MEMBER_1_FILL" data-name="hillsTop 0 Layer0 14 MEMBER 1 FILL"><path class="cls-3" d="M559.47,99.4h-.72c-1.81,0-3.6,0-5.39-.08v1.62a2.06,2.06,0,0,0,2.36,2.3h1.54a2,2,0,0,0,2.21-2.3Z"/><path class="cls-4" d="M560.61,98.45a10.87,10.87,0,0,1-1.14,0h-.72c-1.81.07-3.6,0-5.39,0v.87c1.79.08,3.58.11,5.39.08h.72v1.54a2,2,0,0,1-2.21,2.3h1a2.06,2.06,0,0,0,2.36-2.3Z"/><path class="cls-5" d="M558.47,67.64a2,2,0,0,0-2.68-.52l6,5.71a2.12,2.12,0,0,1,0,3.33l-1,.94,4.25,4.27q2.46,2.46,0,4.89l-1.59,1.62L567.58,92q2.61,2.61.75,5.22l.07.34c.6-.09,1.2-.21,1.82-.34q1.83-2.61-.77-5.22l-4.1-4.09L567,86.26q2.46-2.43,0-4.89l-4.24-4.27.94-.94a2.1,2.1,0,0,0,0-3.33Z"/><path id="Tree-8" data-name="Tree" class="cls-6" d="M550,72.83a2.1,2.1,0,0,0,0,3.33l1,.94-4.22,4.25q-2.49,2.48,0,4.91l1.62,1.62L544.17,92q-2.59,2.61-.74,5.22a64.21,64.21,0,0,0,9.93,1.26c1.79.1,3.58.12,5.39,0h.72a10.87,10.87,0,0,0,1.14,0,71,71,0,0,0,7.79-.92l-.07-.34q1.86-2.61-.75-5.22l-4.09-4.09,1.59-1.62q2.46-2.43,0-4.89l-4.25-4.27,1-.94a2.12,2.12,0,0,0,0-3.33l-6-5.71a4,4,0,0,0-.62.5Z"/></g><path id="hillsTop_0_Layer0_14_MEMBER_1_1_STROKES" data-name="hillsTop 0 Layer0 14 MEMBER 1 1 STROKES" class="cls-7" d="M555.8,67.13a3.49,3.49,0,0,0-.62.5L550,72.84a2.1,2.1,0,0,0,0,3.33l1,.94-4.22,4.25q-2.49,2.48,0,4.91l1.61,1.61L544.18,92q-2.59,2.61-.74,5.21a65.48,65.48,0,0,0,9.93,1.27c1.79.1,3.58.12,5.39.05h.72c.38,0,.76,0,1.14-.05a73.81,73.81,0,0,0,7.79-.92m-9.93-29.89a2,2,0,0,0-2.68-.52m7.87,5.71-5.19-5.19m5.19,8.52a2.1,2.1,0,0,0,0-3.33m-.94,4.27.94-.94m3.3,5.21-4.24-4.27M567,86.27q2.46-2.43,0-4.89m-1.61,6.5L567,86.27M569.46,92l-4.1-4.1m4.86,9.31c1.23-1.73,1-3.47-.76-5.21m-1.05,5.56c.6-.1,1.2-.21,1.81-.35m-13,6.06h1a2.07,2.07,0,0,0,2.36-2.31V98.46m-4.89,4.79h1.54m-3.9-2.31a2.06,2.06,0,0,0,2.36,2.31m-2.36-3.92v1.61m0-2.48v.87"/><g id="hillsTop_0_Layer0_15_MEMBER_0_FILL" data-name="hillsTop 0 Layer0 15 MEMBER 0 FILL"><path class="cls-2" d="M541.47,113.66a79.18,79.18,0,0,0-24.07,0c-3.32.64-5,1.39-5,2.27s1.66,1.62,5,2.23a75.92,75.92,0,0,0,24.07,0c3.32-.61,5-1.36,5-2.23S544.79,114.3,541.47,113.66Z"/></g><g id="hillsTop_0_Layer0_15_MEMBER_1_FILL" data-name="hillsTop 0 Layer0 15 MEMBER 1 FILL"><path class="cls-3" d="M533.25,110.41h-1q-3.87.07-7.7-.11v2.31q0,3.3,3.37,3.3h2.2q3.15-.07,3.15-3.3Z"/><path class="cls-4" d="M534.88,109.06c-.54,0-1.08.07-1.63.07h-1q-3.87.15-7.7-.07v1.24q3.83.18,7.7.11h1v2.2q0,3.23-3.15,3.3h1.42q3.36,0,3.36-3.3Z"/><path class="cls-5" d="M531.84,65.07q-1.92-1.92-3.83-.75l8.58,8.16q2.34,2.37,0,4.75l-1.42,1.34,6.07,6.1q3.51,3.51,0,7L539,94l5.85,5.85q3.72,3.72,1.06,7.45l.11.49c.85-.14,1.71-.3,2.58-.49q2.63-3.74-1.09-7.45L541.66,94l2.3-2.3q3.51-3.48,0-7l-6.06-6.1,1.34-1.34q2.34-2.39,0-4.75Z"/><path id="Tree-9" data-name="Tree" class="cls-6" d="M519.67,72.48q-2.34,2.37,0,4.75l1.39,1.34-6,6.07q-3.54,3.54,0,7L517.3,94l-5.89,5.85q-3.72,3.72-1.06,7.45a92.12,92.12,0,0,0,14.18,1.8q3.83.22,7.7.07h1c.55,0,1.09,0,1.63-.07A103.07,103.07,0,0,0,546,107.75l-.11-.49q2.65-3.74-1.06-7.45L539,94l2.27-2.3q3.51-3.48,0-7l-6.07-6.1,1.42-1.34q2.31-2.39,0-4.75L528,64.32a4.87,4.87,0,0,0-.89.71Z"/></g><path id="hillsTop_0_Layer0_15_MEMBER_1_1_STROKES" data-name="hillsTop 0 Layer0 15 MEMBER 1 1 STROKES" class="cls-12" d="M528,64.35a5.17,5.17,0,0,0-.88.71l-7.45,7.45q-2.34,2.37,0,4.75L521,78.61l-6,6.06q-3.56,3.54,0,7l2.31,2.3-5.89,5.85q-3.72,3.72-1.06,7.45a93.39,93.39,0,0,0,14.18,1.81c2.55.14,5.12.16,7.69.07h1c.54,0,1.09,0,1.63-.07A105.49,105.49,0,0,0,546,107.78M531.81,65.1q-1.9-1.92-3.83-.75m11.24,8.16-7.41-7.41m7.41,12.16q2.34-2.39,0-4.75m-1.34,6.1,1.34-1.35m4.72,7.44-6.06-6.09m6.06,13.08q3.51-3.48,0-7M541.63,94l2.31-2.3m3.54,8.15L541.63,94m7,13.3q2.63-3.72-1.1-7.45M546,107.78c.85-.14,1.72-.3,2.59-.49m-18.5,8.65h1.41q3.38,0,3.37-3.3V109.1m-7,6.84h2.2m-5.57-3.3q0,3.3,3.37,3.3m-3.37-5.6v2.3m0-3.54v1.24"/><g id="hillsTop_0_Layer0_16_MEMBER_0_FILL" data-name="hillsTop 0 Layer0 16 MEMBER 0 FILL"><path class="cls-2" d="M308.24,133.87a113.9,113.9,0,0,0-34.84,0c-4.81.92-7.21,2-7.21,3.28s2.4,2.35,7.21,3.24a110.64,110.64,0,0,0,34.84,0q7.22-1.33,7.21-3.24C315.45,135.89,313.05,134.79,308.24,133.87Z"/></g><g id="_Group_" data-name="&lt;Group&gt;"><g id="hillsTop_0_Layer0_16_MEMBER_1_FILL" data-name="hillsTop 0 Layer0 16 MEMBER 1 FILL"><path class="cls-3" d="M296.54,129.09h-1.49q-5.6.09-11.13-.16v3.34q0,4.77,4.87,4.77H292q4.57-.1,4.57-4.77Z"/><path class="cls-4" d="M298.9,127.14c-.78.06-1.57.1-2.36.1h-1.49c-3.73.14-7.44.1-11.13-.1v1.79q5.54.25,11.13.16h1.49v3.18q0,4.66-4.57,4.77H294q4.88,0,4.87-4.77Z"/><path class="cls-5" d="M294.49,63.45q-2.78-2.78-5.54-1.08l12.42,11.8q3.38,3.45.05,6.88l-2.06,2,8.78,8.83q5.08,5.08,0,10.11l-3.28,3.33,8.46,8.47q5.4,5.39,1.54,10.78l.16.72c1.23-.21,2.48-.45,3.74-.72q3.81-5.38-1.59-10.78l-8.47-8.47,3.34-3.33q5.08-5,0-10.11L303.26,83l2-2q3.38-3.43,0-6.88Z"/><path id="Tree-10" data-name="Tree" class="cls-6" d="M276.89,74.17q-3.39,3.45,0,6.88l2,2-8.73,8.78q-5.13,5.13-.05,10.16l3.34,3.33-8.52,8.47q-5.39,5.39-1.54,10.78a136.13,136.13,0,0,0,20.53,2.62c3.69.2,7.4.24,11.13.1h1.49c.79,0,1.58,0,2.36-.1a155.24,155.24,0,0,0,16.12-1.9l-.16-.72q3.86-5.38-1.54-10.78l-8.46-8.47,3.28-3.33q5.08-5,0-10.11L299.36,83l2.06-2q3.33-3.43-.05-6.88L289,62.37a6.78,6.78,0,0,0-1.29,1Z"/></g><path id="hillsTop_0_Layer0_16_MEMBER_1_1_STROKES" data-name="hillsTop 0 Layer0 16 MEMBER 1 1 STROKES" class="cls-13" d="M288.94,62.35a7.51,7.51,0,0,0-1.28,1L276.88,74.16q-3.39,3.44,0,6.88l2,1.95-8.72,8.77q-5.13,5.13-.05,10.16l3.33,3.34-8.51,8.47q-5.4,5.38-1.54,10.77a133.48,133.48,0,0,0,20.52,2.62q5.55.31,11.14.1h1.49c.79,0,1.57,0,2.36-.1a152.39,152.39,0,0,0,16.11-1.9M294.49,63.43c-1.85-1.85-3.7-2.2-5.55-1.08m16.27,11.81L294.49,63.43M305.21,81q3.39-3.45,0-6.88M303.26,83,305.21,81M312,91.81,303.26,83M312,101.92q5.07-5,0-10.11m-3.34,13.45,3.34-3.34m5.13,11.81-8.47-8.47m10.06,19.24q3.8-5.39-1.59-10.77M315,125.22c1.24-.2,2.48-.44,3.75-.72M292,137h2q4.88,0,4.88-4.77v-5.13M288.79,137H292m-8.06-4.77q0,4.77,4.88,4.77m-4.88-8.1v3.33m0-5.13v1.8"/></g></g></g></svg>