<svg width="142" height="113" viewBox="0 0 142 113" fill="none" xmlns="http://www.w3.org/2000/svg">
<path fill-rule="evenodd" clip-rule="evenodd" d="M0 5.76531C0 2.58122 2.39901 0 5.35834 0H24.6484C27.0714 0 29.1187 1.73039 29.7813 4.10529C29.8594 4.31032 29.9273 4.52234 29.9843 4.74085L34.4628 21.9082H128.046C139.002 21.9082 145.671 34.8882 139.843 44.8709L120.996 77.1567C118.447 81.5232 113.991 84.1735 109.198 84.1735H49.8962C43.5486 84.1735 38.0034 79.5568 36.4104 72.9456L33.5566 61.1019L20.6248 11.5306H5.35834C2.39901 11.5306 0 8.9494 0 5.76531ZM42.1167 33.4388C40.0136 33.4388 38.4768 35.5756 39.0046 37.7661L43.9034 58.0966L47.3134 71.168L47.3274 71.2228C47.3327 71.2439 47.3379 71.2651 47.343 71.2863C47.9377 72.1217 48.8717 72.6429 49.8962 72.6429H109.198C110.304 72.6429 111.333 72.0313 111.921 71.0236L130.768 38.7379C132.113 36.4342 130.574 33.4388 128.046 33.4388H42.1167Z" fill="white"/>
<path d="M104.488 113C110.702 113 115.74 107.579 115.74 100.893C115.74 94.2063 110.702 88.7857 104.488 88.7857C98.273 88.7857 93.2351 94.2063 93.2351 100.893C93.2351 107.579 98.273 113 104.488 113Z" fill="white"/>
<path d="M66.4434 100.893C66.4434 107.579 61.4055 113 55.1909 113C48.9763 113 43.9384 107.579 43.9384 100.893C43.9384 94.2063 48.9763 88.7857 55.1909 88.7857C61.4055 88.7857 66.4434 94.2063 66.4434 100.893Z" fill="white"/>
</svg>
