<svg width="107" height="110" viewBox="0 0 107 110" fill="none" xmlns="http://www.w3.org/2000/svg">
<path fill-rule="evenodd" clip-rule="evenodd" d="M0.794708 8.88759C-0.841268 6.05399 0.129591 2.43068 2.96318 0.794708C5.79678 -0.841269 9.42008 0.129592 11.0561 2.96319L23.3036 24.1766L35.5512 2.96319C37.1871 0.129599 40.8104 -0.841267 43.644 0.794709C46.4776 2.43069 47.4485 6.05399 45.8125 8.88758L30.1445 36.0254L45.8125 63.1631C47.4485 65.9967 46.4776 69.62 43.644 71.256C40.8104 72.892 37.1871 71.9211 35.5512 69.0875L23.3036 47.8741L11.0561 69.0875C9.42009 71.9211 5.79678 72.892 2.96319 71.256C0.129593 69.62 -0.841269 65.9967 0.794707 63.1631L16.4627 36.0254L0.794708 8.88759ZM94.3325 30.3872C87.4289 30.3872 81.8325 35.9836 81.8325 42.8872V59.8872C81.8325 66.7908 87.4289 72.3872 94.3325 72.3872C101.236 72.3872 106.833 66.7908 106.833 59.8872V42.8872C106.833 35.9836 101.236 30.3872 94.3325 30.3872ZM47.1429 103.266C51.8167 106.804 56.9135 109.387 61.8325 109.387C66.7515 109.387 71.8483 106.804 76.5221 103.266C81.6951 99.3496 84.2816 97.3915 84.8628 93.8412C85.2773 91.3091 84.0437 87.6357 82.1849 85.8671C79.5786 83.3872 75.6205 83.3872 67.7042 83.3872H55.9608C48.0445 83.3872 44.0864 83.3872 41.4801 85.8671C39.6213 87.6357 38.3877 91.3091 38.8022 93.8412C39.3834 97.3915 41.9699 99.3496 47.1429 103.266Z" fill="white"/>
</svg>
