<svg width="174" height="142" viewBox="0 0 174 142" fill="none" xmlns="http://www.w3.org/2000/svg">
<path fill-rule="evenodd" clip-rule="evenodd" d="M93.0597 58.5686C92.9229 57.664 92.8528 56.7458 92.8528 55.8161C92.8528 41.3792 109.771 29.6757 130.64 29.6757C151.509 29.6757 168.427 41.3792 168.427 55.8161C168.427 70.2531 151.509 81.9565 130.64 81.9565C128.918 81.9565 127.223 81.8769 125.562 81.7225C125.966 81.9424 126.368 82.1682 126.77 82.4001C144.843 92.8347 153.643 111.429 146.424 123.932C139.206 136.435 118.703 138.111 100.629 127.677C82.5561 117.242 73.7565 98.6475 80.975 86.1448C81.4978 85.2392 82.0903 84.3905 82.7465 83.599L26.8348 89.6534C16.8137 90.7385 8.51214 83.1067 8.80476 73.0778L89.8156 70.4483L21.018 27.6937C25.4769 19.4225 35.7698 17.0948 43.4143 22.6289L93.0597 58.5686ZM130.899 76.2626C114.746 76.2626 101.653 67.2243 101.653 56.0749C101.653 44.9256 114.746 35.8873 130.899 35.8873C147.051 35.8873 160.145 44.9256 160.145 56.0749C160.145 67.2243 147.051 76.2626 130.899 76.2626ZM88.4664 90.7688C82.8917 100.424 89.7123 114.799 103.701 122.875C117.689 130.951 133.548 129.671 139.122 120.015C144.697 110.359 137.876 95.985 123.888 87.9089C109.9 79.8328 94.0411 81.1132 88.4664 90.7688ZM96.1203 75.635C97.8379 76.0953 99.6034 75.076 100.064 73.3583C100.524 71.6407 99.5046 69.8751 97.7869 69.4149C96.0693 68.9547 94.3038 69.974 93.8435 71.6916C93.3833 73.4093 94.4026 75.1748 96.1203 75.635Z" fill="white"/>
</svg>
