<svg width="110" height="131" viewBox="0 0 110 131" fill="none" xmlns="http://www.w3.org/2000/svg">
<path fill-rule="evenodd" clip-rule="evenodd" d="M33.4136 8C33.4136 3.58173 36.9953 0 41.4136 0H69.4136C73.8319 0 77.4136 3.58173 77.4136 8V43.8195H85.2307C89.6162 43.8195 91.877 49.0629 88.8665 52.2518L58.2561 84.6765C56.2829 86.7667 52.9578 86.7667 50.9845 84.6765L20.3741 52.2518C17.3636 49.0629 19.6245 43.8194 24.0099 43.8194H33.4136V8ZM8 104C3.58173 104 0 107.582 0 112V123C0 127.418 3.58173 131 8 131H102C106.418 131 110 127.418 110 123V112C110 107.582 106.418 104 102 104H8Z" fill="white"/>
</svg>
