<svg width="36" height="48" viewBox="0 0 36 48" fill="none" xmlns="http://www.w3.org/2000/svg">
<mask id="path-1-outside-1" maskUnits="userSpaceOnUse" x="0" y="0" width="36" height="48" fill="black">
<rect fill="white" width="36" height="48"/>
<path fill-rule="evenodd" clip-rule="evenodd" d="M18 2C9.16344 2 2 9.16343 2 18V40.4C2 43.3455 4.38781 45.7333 7.33333 45.7333C10.2789 45.7333 12.6667 43.3455 12.6667 40.4C12.6667 43.3455 15.0545 45.7333 18 45.7333C20.9455 45.7333 23.3333 43.3455 23.3333 40.4C23.3333 43.3455 25.7211 45.7333 28.6667 45.7333C31.6122 45.7333 34 43.3455 34 40.4V18C34 9.16345 26.8366 2 18 2Z"/>
</mask>
<path fill-rule="evenodd" clip-rule="evenodd" d="M18 2C9.16344 2 2 9.16343 2 18V40.4C2 43.3455 4.38781 45.7333 7.33333 45.7333C10.2789 45.7333 12.6667 43.3455 12.6667 40.4C12.6667 43.3455 15.0545 45.7333 18 45.7333C20.9455 45.7333 23.3333 43.3455 23.3333 40.4C23.3333 43.3455 25.7211 45.7333 28.6667 45.7333C31.6122 45.7333 34 43.3455 34 40.4V18C34 9.16345 26.8366 2 18 2Z" fill="white"/>
<path d="M4 18C4 10.268 10.268 4 18 4V0C8.05888 0 0 8.05886 0 18H4ZM4 40.4V18H0V40.4H4ZM7.33333 43.7333C5.49238 43.7333 4 42.2409 4 40.4H0C0 44.4501 3.28324 47.7333 7.33333 47.7333V43.7333ZM10.6667 40.4C10.6667 42.2409 9.17428 43.7333 7.33333 43.7333V47.7333C11.3834 47.7333 14.6667 44.4501 14.6667 40.4H10.6667ZM18 43.7333C16.1591 43.7333 14.6667 42.2409 14.6667 40.4H10.6667C10.6667 44.4501 13.9499 47.7333 18 47.7333V43.7333ZM21.3333 40.4C21.3333 42.2409 19.8409 43.7333 18 43.7333V47.7333C22.0501 47.7333 25.3333 44.4501 25.3333 40.4H21.3333ZM28.6667 43.7333C26.8257 43.7333 25.3333 42.2409 25.3333 40.4H21.3333C21.3333 44.4501 24.6166 47.7333 28.6667 47.7333V43.7333ZM32 40.4C32 42.2409 30.5076 43.7333 28.6667 43.7333V47.7333C32.7168 47.7333 36 44.4501 36 40.4H32ZM32 18V40.4H36V18H32ZM18 4C25.732 4 32 10.268 32 18H36C36 8.05888 27.9411 0 18 0V4Z" fill="black" mask="url(#path-1-outside-1)"/>
<path fill-rule="evenodd" clip-rule="evenodd" d="M2 17.5C2 8.38731 9.3873 1 18.5 1C27.6127 1 35 8.3873 35 17.5V40.6L34.9999 40.6C34.9999 43.6376 32.5375 46.1 29.4999 46.1C29.2026 46.1 28.9108 46.0764 28.6263 46.031C31.072 45.6278 32.9375 43.5036 32.9375 40.9437V19.2874C32.9375 10.7443 26.0119 3.81869 17.4688 3.81869C8.9256 3.81869 2 10.7443 2 19.2874V17.5Z" fill="black" fill-opacity="0.1"/>
<rect x="11" y="19" width="4" height="7" rx="2" fill="black"/>
<rect x="21" y="19" width="4" height="7" rx="2" fill="black"/>
</svg>
