<svg width="1237" height="156" viewBox="0 0 1237 156" fill="none" xmlns="http://www.w3.org/2000/svg">
<path fill-rule="evenodd" clip-rule="evenodd" d="M1237 155.703H0V66.103V47.753C3.4 48.013 6.82 48.303 10.25 48.603C49.8763 52.6435 89.2518 58.8495 128.2 67.193C164.433 74.8663 200.7 82.3363 237 89.603C275.369 97.3216 314.23 102.351 353.3 104.653C390.4 106.253 427.483 106.603 464.55 105.703C501.077 104.036 537.593 102.003 574.1 99.603C610.607 97.203 647.073 93.8363 683.5 89.503C721.867 85.0363 760.167 79.9863 798.4 74.353L812.15 72.353C850.05 66.3796 887.933 60.8963 925.8 55.903C958 51.7363 990.233 48.403 1022.5 45.903C1057.63 43.2963 1092.77 42.0796 1127.9 42.253C1164.4 42.4511 1200.83 44.3466 1237 47.7538V155.703Z" fill="black"/>
<path fill-rule="evenodd" clip-rule="evenodd" d="M0 68.1714V156H1237V49.7383C1200.83 46.3151 1164.49 44.4083 1127.99 44.2092C1092.85 44.0351 1057.72 45.2575 1022.58 47.8764C990.313 50.3881 958.077 53.7372 925.875 57.9234C888.005 62.9403 850.119 68.4494 812.216 74.4508L798.464 76.4602C760.228 82.1201 721.925 87.1938 683.555 91.6815C647.126 96.0352 610.656 99.4177 574.146 101.829C537.637 104.24 501.117 106.283 464.587 107.958C427.518 108.862 390.431 108.51 353.328 106.903C314.256 104.589 275.391 99.5369 237.019 91.782C200.716 84.4811 164.447 76.976 128.21 69.2665C89.259 60.8838 49.8803 54.6487 10.2508 50.5891C6.82055 50.2877 3.40027 49.9963 0 49.7351V68.1714Z" fill="#FBFBFB"/>
<path fill-rule="evenodd" clip-rule="evenodd" d="M1237 67.1151V49.7345C1206.26 47.0977 1175.34 44.5316 1144.45 44.1029C1089.11 43.2331 1033.77 45.788 978.75 51.7529C934.75 56.7129 890.75 62.2629 846.75 68.4029C809.35 73.8362 771.917 79.1196 734.45 84.2529C677.017 92.1129 619.383 98.0929 561.55 102.193C520.25 105.02 478.883 106.886 437.45 107.793C407.077 108.42 376.743 107.536 346.45 105.143C312.784 102.507 279.296 97.9499 246.15 91.4929C206.717 83.6996 167.367 75.8862 128.1 68.0529C85.7333 59.6529 43.0333 53.2196 0 48.7529V67.1929L13.85 67.5929C50.5158 68.9148 87.0758 72.3371 123.35 77.8429C159.641 83.4208 195.583 91.07 231 100.753C269.133 111.153 307.65 119.633 346.55 126.193C386.798 133.072 427.569 136.418 468.4 136.193C504.883 135.995 541.307 133.221 577.4 127.893C615.8 122.093 653.883 114.663 691.65 105.603C727.823 96.8029 764.223 89.0862 800.85 82.4529C839.45 75.6796 878.117 70.1462 916.85 65.8529C952.983 61.9529 989.233 59.2362 1025.6 57.7029C1065.5 55.1929 1094.27 53.4263 1130 55.1929C1154.78 55.1929 1177.12 58.6968 1198.24 62.0087C1211.55 64.095 1224.37 66.1052 1237 67.1151Z" fill="black" fill-opacity="0.04"/>
<path d="M1022.71 59.7184C1025.56 59.5238 1028.4 59.1878 1031.25 58.7104C1031.91 58.6043 1032.57 58.4716 1033.24 58.3125C1034.58 56.4203 1034.3 54.5193 1032.39 52.6094L1027.91 48.1L1029.66 46.3493C1031.46 44.5632 1031.46 42.7683 1029.66 40.9645L1025.02 36.2959L1026.05 35.2614C1027.25 34.0412 1027.25 32.821 1026.05 31.6008L1020.35 25.9243C1019.38 24.934 1018.4 24.7395 1017.43 25.3407C1017.18 25.4999 1016.95 25.6855 1016.74 25.8978L1011.01 31.6008C1009.83 32.821 1009.83 34.0412 1011.01 35.2614L1012.07 36.2959L1007.46 40.938C1005.64 42.7594 1005.63 44.5632 1007.43 46.3493L1009.21 48.1L1004.67 52.6094C1002.76 54.5193 1002.49 56.4203 1003.85 58.3125C1007.48 59.0552 1011.11 59.5238 1014.75 59.7184C1017.55 59.8952 1020.2 59.8952 1022.71 59.7184V62.424C1022.71 64.1217 1021.84 64.9705 1020.11 64.9705H1017.33C1015.61 64.9705 1014.75 64.1217 1014.75 62.424V59.7184" fill="white"/>
<path d="M1027.68 63.2808C1025.13 62.8088 1022.05 62.5729 1018.44 62.5729C1014.83 62.5729 1011.75 62.8088 1009.2 63.2808C1006.65 63.7709 1005.37 64.3517 1005.37 65.0233C1005.37 65.6949 1006.65 66.2667 1009.2 66.7386C1011.75 67.2287 1014.83 67.4737 1018.44 67.4737C1022.05 67.4737 1025.13 67.2287 1027.68 66.7386C1030.23 66.2667 1031.51 65.6949 1031.51 65.0233C1031.51 64.3517 1030.23 63.7709 1027.68 63.2808Z" fill="black" fill-opacity="0.0980392"/>
<path d="M1014.75 59.7184V62.424C1014.75 64.1217 1015.61 64.9705 1017.33 64.9705H1020.11C1021.84 64.9705 1022.71 64.1217 1022.71 62.424V59.7184C1020.2 59.8952 1017.55 59.8952 1014.75 59.7184Z" fill="#BB9A83"/>
<path d="M1026.05 35.2614C1027.25 34.0412 1027.25 32.821 1026.05 31.6008L1021.83 27.4097C1022.16 28.1892 1021.81 28.4987 1020.77 28.3381C1019.74 28.1947 1018.64 28.2123 1017.48 28.3912C1016.33 28.5867 1015.57 28.2595 1015.2 27.4097L1011.01 31.6008C1009.83 32.821 1009.83 34.0412 1011.01 35.2614L1012.07 36.2959C1016.68 37.4671 1021 37.4671 1025.02 36.2959L1026.05 35.2614ZM1027.64 38.9485C1026.78 38.9293 1025.8 39.1503 1024.7 39.6117C1023.37 40.3849 1021.45 40.544 1018.94 40.0891C1017.17 39.6996 1015.07 39.788 1012.66 40.3544C1010.24 40.9249 1009.16 40.4563 1009.42 38.9485L1007.46 40.938C1005.64 42.7594 1005.63 44.5632 1007.43 46.3493L1009.21 48.1L1009.1 48.2061C1016.48 49.1163 1022.78 49.1163 1028.02 48.2061L1027.91 48.1L1029.66 46.3493C1031.46 44.5632 1031.46 42.7683 1029.66 40.9645L1027.64 38.9485ZM1030.08 50.3016C1029.27 50.2285 1028.66 50.37 1028.25 50.7261C1027.87 51.0864 1026.97 51.6435 1025.57 52.3972C1024.19 53.1667 1022.08 53.1402 1019.24 52.3176C1016.39 51.4934 1013.71 51.0778 1011.2 51.0709C1008.71 51.0838 1007.27 50.8539 1006.9 50.3812L1004.67 52.6094C1003.75 53.5339 1003.2 54.4534 1003.03 55.3681C1013.37 57.3255 1023.7 57.3255 1034.01 55.3681C1033.86 54.4534 1033.32 53.5339 1032.39 52.6094L1030.08 50.3016Z" fill="#518058"/>
<path d="M1025.02 36.2959L1026.05 35.2614C1027.25 34.0412 1027.25 32.821 1026.05 31.6008L1020.35 25.9243C1019.38 24.934 1018.4 24.7395 1017.43 25.3407L1024.01 31.6008C1025.21 32.821 1025.22 34.0412 1024.04 35.2614L1022.95 36.2959L1027.59 40.9645C1029.39 42.7683 1029.39 44.5632 1027.59 46.3493L1025.87 48.1L1030.35 52.6094C1032.26 54.5193 1032.53 56.4203 1031.17 58.3125L1031.25 58.7104C1031.91 58.6043 1032.57 58.4716 1033.24 58.3125C1034.58 56.4203 1034.3 54.5193 1032.39 52.6094L1027.91 48.1L1029.66 46.3493C1031.46 44.5632 1031.46 42.7683 1029.66 40.9645L1025.02 36.2959Z" fill="black" fill-opacity="0.2"/>
<path d="M1022.71 59.7184C1022.29 59.7538 1021.86 59.7714 1021.44 59.7714C1021.17 59.7714 1020.92 59.7714 1020.67 59.7714C1018.69 59.8422 1016.72 59.8245 1014.75 59.7184V60.6733C1016.72 60.7617 1018.69 60.7883 1020.67 60.7529C1020.92 60.7529 1021.17 60.7529 1021.44 60.7529V62.424C1021.44 64.0863 1020.63 64.9352 1019.02 64.9705H1020.11C1021.84 64.9705 1022.71 64.1217 1022.71 62.424V59.7184Z" fill="black" fill-opacity="0.2"/>
<path d="M1022.71 59.7184C1025.56 59.5238 1028.4 59.1878 1031.25 58.7104C1031.91 58.6043 1032.57 58.4716 1033.24 58.3125C1034.58 56.4203 1034.3 54.5193 1032.39 52.6094L1027.91 48.1L1029.66 46.3493C1031.46 44.5632 1031.46 42.7683 1029.66 40.9645L1025.02 36.2959L1026.05 35.2614C1027.25 34.0412 1027.25 32.821 1026.05 31.6008L1020.35 25.9243C1019.38 24.934 1018.4 24.7395 1017.43 25.3407C1017.18 25.4999 1016.95 25.6855 1016.74 25.8978L1011.01 31.6008C1009.83 32.821 1009.83 34.0412 1011.01 35.2614L1012.07 36.2959L1007.46 40.938C1005.64 42.7594 1005.63 44.5632 1007.43 46.3493L1009.21 48.1L1004.67 52.6094C1002.76 54.5193 1002.49 56.4203 1003.85 58.3125C1007.48 59.0552 1011.11 59.5238 1014.75 59.7184C1017.55 59.8952 1020.2 59.8952 1022.71 59.7184ZM1022.71 59.7184V62.424C1022.71 64.1217 1021.84 64.9705 1020.11 64.9705H1017.33C1015.61 64.9705 1014.75 64.1217 1014.75 62.424V59.7184" stroke="black" stroke-width="2" stroke-linecap="round" stroke-linejoin="round"/>
<path d="M996.566 60.988C999.682 60.7752 1002.8 60.4075 1005.91 59.8851C1006.63 59.769 1007.35 59.6239 1008.09 59.4497C1009.56 57.3793 1009.25 55.2993 1007.16 53.2095L1002.26 48.2754L1004.17 46.3599C1006.14 44.4056 1006.14 42.4416 1004.17 40.468L999.091 35.3597L1000.22 34.2278C1001.54 32.8927 1001.54 31.5576 1000.22 30.2225L993.983 24.0113C992.919 22.9278 991.855 22.7149 990.791 23.3728C990.52 23.5469 990.268 23.7501 990.036 23.9823L983.767 30.2225C982.47 31.5576 982.47 32.8927 983.767 34.2278L984.928 35.3597L979.877 40.439C977.884 42.4319 977.875 44.4056 979.848 46.3599L981.793 48.2754L976.83 53.2095C974.74 55.2993 974.44 57.3793 975.93 59.4497C979.897 60.2624 983.873 60.7752 987.859 60.988C990.916 61.1815 993.819 61.1815 996.566 60.988V63.9485C996.566 65.806 995.618 66.7348 993.722 66.7348H990.674C988.798 66.7348 987.859 65.806 987.859 63.9485V60.988" fill="white"/>
<path d="M1002.01 64.8859C999.216 64.3695 995.845 64.1113 991.893 64.1113C987.942 64.1113 984.571 64.3695 981.78 64.8859C978.989 65.4221 977.594 66.0577 977.594 66.7925C977.594 67.5274 978.989 68.153 981.78 68.6694C984.571 69.2056 987.942 69.4737 991.893 69.4737C995.845 69.4737 999.216 69.2056 1002.01 68.6694C1004.8 68.153 1006.19 67.5274 1006.19 66.7925C1006.19 66.0577 1004.8 65.4221 1002.01 64.8859Z" fill="black" fill-opacity="0.0980392"/>
<path d="M987.859 60.988V63.9485C987.859 65.806 988.798 66.7348 990.674 66.7348H993.722C995.618 66.7348 996.566 65.806 996.566 63.9485V60.988C993.819 61.1815 990.916 61.1815 987.859 60.988Z" fill="#BB9A83"/>
<path d="M1000.22 34.2278C1001.54 32.8927 1001.54 31.5576 1000.22 30.2225L995.609 25.6367C995.965 26.4895 995.579 26.8282 994.448 26.6525C993.314 26.4955 992.114 26.5149 990.849 26.7105C989.584 26.9244 988.752 26.5665 988.353 25.6367L983.767 30.2225C982.47 31.5576 982.47 32.8927 983.767 34.2278L984.928 35.3597C989.969 36.6412 994.691 36.6412 999.091 35.3597L1000.22 34.2278ZM1001.96 38.2621C1001.02 38.241 999.949 38.4829 998.743 38.9877C997.283 39.8337 995.184 40.0079 992.445 39.5102C990.505 39.0839 988.212 39.1807 985.566 39.8004C982.924 40.4246 981.743 39.9119 982.025 38.2621L979.878 40.4389C977.885 42.4319 977.875 44.4056 979.849 46.3598L981.793 48.2754L981.677 48.3915C989.745 49.3874 996.643 49.3874 1002.37 48.3915L1002.26 48.2754L1004.17 46.3598C1006.14 44.4056 1006.14 42.4416 1004.17 40.468L1001.96 38.2621ZM1004.64 50.6844C1003.74 50.6044 1003.08 50.7592 1002.63 51.1488C1002.21 51.5431 1001.23 52.1526 999.701 52.9773C998.189 53.8193 995.877 53.7903 992.764 52.8903C989.65 51.9884 986.718 51.5337 983.97 51.5261C981.244 51.5403 979.677 51.2887 979.268 50.7715L976.83 53.2095C975.818 54.2211 975.219 55.2272 975.031 56.228C986.35 58.3698 997.65 58.3698 1008.93 56.228C1008.76 55.2272 1008.17 54.2211 1007.16 53.2095L1004.64 50.6844Z" fill="#518058"/>
<path d="M999.091 35.3597L1000.22 34.2278C1001.54 32.8927 1001.54 31.5576 1000.22 30.2225L993.983 24.0113C992.919 22.9278 991.855 22.7149 990.791 23.3728L997.988 30.2225C999.304 31.5576 999.314 32.8927 998.018 34.2278L996.828 35.3597L1001.91 40.468C1003.88 42.4416 1003.88 44.4056 1001.91 46.3599L1000.02 48.2754L1004.93 53.2095C1007.01 55.2993 1007.31 57.3793 1005.82 59.4497L1005.91 59.8851C1006.63 59.769 1007.35 59.6239 1008.09 59.4497C1009.56 57.3793 1009.25 55.2993 1007.16 53.2095L1002.26 48.2754L1004.17 46.3599C1006.14 44.4056 1006.14 42.4416 1004.17 40.468L999.091 35.3597Z" fill="black" fill-opacity="0.2"/>
<path d="M996.566 60.988C996.102 61.0267 995.638 61.0461 995.173 61.0461C994.883 61.0461 994.602 61.0461 994.331 61.0461C992.164 61.1235 990.007 61.1041 987.859 60.988V62.0329C990.007 62.1297 992.164 62.1587 994.331 62.12C994.602 62.12 994.883 62.12 995.173 62.12V63.9485C995.173 65.7673 994.293 66.6961 992.532 66.7348H993.722C995.618 66.7348 996.566 65.806 996.566 63.9485V60.988Z" fill="black" fill-opacity="0.2"/>
<path d="M996.566 60.988C999.682 60.7752 1002.8 60.4075 1005.91 59.8851C1006.63 59.769 1007.35 59.6239 1008.09 59.4497C1009.56 57.3793 1009.25 55.2993 1007.16 53.2095L1002.26 48.2754L1004.17 46.3599C1006.14 44.4056 1006.14 42.4416 1004.17 40.468L999.091 35.3597L1000.22 34.2278C1001.54 32.8927 1001.54 31.5576 1000.22 30.2225L993.983 24.0113C992.919 22.9278 991.855 22.7149 990.791 23.3728C990.52 23.5469 990.268 23.7501 990.036 23.9823L983.767 30.2225C982.47 31.5576 982.47 32.8927 983.767 34.2278L984.928 35.3597L979.877 40.439C977.884 42.4319 977.875 44.4056 979.848 46.3599L981.793 48.2754L976.83 53.2095C974.74 55.2993 974.44 57.3793 975.93 59.4497C979.897 60.2624 983.873 60.7752 987.859 60.988C990.916 61.1815 993.819 61.1815 996.566 60.988ZM996.566 60.988V63.9485C996.566 65.806 995.618 66.7348 993.722 66.7348H990.674C988.798 66.7348 987.859 65.806 987.859 63.9485V60.988" stroke="black" stroke-width="2" stroke-linecap="round" stroke-linejoin="round"/>
<path d="M965.178 65.58C969.393 65.292 973.607 64.7946 977.822 64.0878C978.791 63.9307 979.772 63.7344 980.767 63.4988C982.757 60.6977 982.338 57.8835 979.511 55.0562L972.874 48.3807L975.466 45.789C978.136 43.1449 978.136 40.4878 975.466 37.8176L968.594 30.9065L970.126 29.375C971.906 27.5687 971.906 25.7624 970.126 23.956L961.683 15.5527C960.243 14.0867 958.803 13.7988 957.364 14.6888C956.997 14.9244 956.657 15.1993 956.343 15.5134L947.861 23.956C946.107 25.7624 946.107 27.5687 947.861 29.375L949.432 30.9065L942.599 37.7783C939.903 40.4747 939.889 43.1449 942.56 45.789L945.191 48.3807L938.476 55.0562C935.648 57.8835 935.243 60.6977 937.258 63.4988C942.625 64.5983 948.005 65.292 953.398 65.58C957.534 65.8418 961.461 65.8418 965.178 65.58V69.5853C965.178 72.0985 963.895 73.355 961.33 73.355H957.207C954.667 73.355 953.398 72.0985 953.398 69.5853V65.58" fill="white"/>
<path d="M972.538 70.8536C968.762 70.155 964.201 69.8057 958.856 69.8057C953.51 69.8057 948.949 70.155 945.173 70.8536C941.397 71.5791 939.509 72.439 939.509 73.4332C939.509 74.4274 941.397 75.2738 945.173 75.9724C948.949 76.6979 953.51 77.0607 958.856 77.0607C964.201 77.0607 968.762 76.6979 972.538 75.9724C976.314 75.2738 978.202 74.4274 978.202 73.4332C978.202 72.439 976.314 71.5791 972.538 70.8536Z" fill="black" fill-opacity="0.0980392"/>
<path d="M953.398 65.58V69.5853C953.398 72.0985 954.667 73.3551 957.207 73.3551H961.33C963.895 73.3551 965.178 72.0985 965.178 69.5853V65.58C961.461 65.8418 957.534 65.8418 953.398 65.58Z" fill="#BB9A83"/>
<path d="M970.126 29.375C971.906 27.5687 971.906 25.7624 970.126 23.956L963.882 17.7517C964.365 18.9056 963.841 19.3637 962.311 19.1261C960.777 18.9137 959.154 18.9399 957.442 19.2046C955.731 19.494 954.605 19.0097 954.065 17.7517L947.861 23.956C946.107 25.7624 946.107 27.5687 947.861 29.375L949.432 30.9064C956.253 32.6403 962.64 32.6403 968.594 30.9064L970.126 29.375ZM972.482 34.8332C971.207 34.8047 969.754 35.1319 968.123 35.8149C966.148 36.9595 963.308 37.1951 959.602 36.5218C956.977 35.9451 953.875 36.076 950.295 36.9144C946.72 37.759 945.123 37.0653 945.505 34.8332L942.599 37.7783C939.903 40.4747 939.89 43.1449 942.56 45.789L945.191 48.3807L945.034 48.5377C955.95 49.8851 965.282 49.8851 973.032 48.5377L972.875 48.3807L975.466 45.789C978.136 43.1449 978.136 40.4878 975.466 37.8176L972.482 34.8332ZM976.094 51.6399C974.889 51.5316 973.986 51.741 973.385 52.2682C972.813 52.8017 971.491 53.6263 969.419 54.742C967.373 55.8812 964.245 55.842 960.034 54.6242C955.82 53.4041 951.854 52.7889 948.136 52.7787C944.448 52.7978 942.327 52.4575 941.774 51.7577L938.476 55.0562C937.107 56.4247 936.296 57.786 936.041 59.14C951.356 62.0377 966.644 62.0377 981.906 59.14C981.678 57.786 980.879 56.4247 979.511 55.0562L976.094 51.6399Z" fill="#518058"/>
<path d="M968.594 30.9065L970.126 29.375C971.906 27.5687 971.906 25.7624 970.126 23.956L961.683 15.5527C960.243 14.0867 958.803 13.7988 957.364 14.6888L967.102 23.956C968.882 25.7624 968.895 27.5687 967.141 29.375L965.531 30.9065L972.403 37.8176C975.073 40.4878 975.073 43.1449 972.403 45.789L969.851 48.3807L976.487 55.0562C979.314 57.8835 979.72 60.6977 977.704 63.4988L977.822 64.0878C978.791 63.9307 979.773 63.7344 980.767 63.4988C982.757 60.6977 982.338 57.8835 979.511 55.0562L972.874 48.3807L975.466 45.789C978.136 43.1449 978.136 40.4878 975.466 37.8176L968.594 30.9065Z" fill="black" fill-opacity="0.2"/>
<path d="M965.178 65.58C964.55 65.6324 963.921 65.6586 963.293 65.6586C962.9 65.6586 962.521 65.6586 962.154 65.6586C959.222 65.7633 956.303 65.7371 953.398 65.58V66.9937C956.303 67.1246 959.222 67.1638 962.154 67.1115C962.521 67.1115 962.9 67.1115 963.293 67.1115V69.5853C963.293 72.0461 962.102 73.3027 959.72 73.3551H961.33C963.895 73.3551 965.178 72.0985 965.178 69.5853V65.58Z" fill="black" fill-opacity="0.2"/>
<path d="M965.178 65.58C969.393 65.292 973.607 64.7946 977.822 64.0878C978.791 63.9307 979.772 63.7344 980.767 63.4988C982.757 60.6977 982.338 57.8835 979.511 55.0562L972.874 48.3807L975.466 45.789C978.136 43.1449 978.136 40.4878 975.466 37.8176L968.594 30.9065L970.126 29.375C971.906 27.5687 971.906 25.7624 970.126 23.956L961.683 15.5527C960.243 14.0867 958.803 13.7988 957.364 14.6888C956.997 14.9244 956.657 15.1993 956.343 15.5134L947.861 23.956C946.107 25.7624 946.107 27.5687 947.861 29.375L949.432 30.9065L942.599 37.7783C939.903 40.4747 939.889 43.1449 942.56 45.789L945.191 48.3807L938.476 55.0562C935.648 57.8835 935.243 60.6977 937.258 63.4988C942.625 64.5983 948.005 65.292 953.398 65.58C957.534 65.8418 961.461 65.8418 965.178 65.58ZM965.178 65.58V69.5853C965.178 72.0985 963.895 73.355 961.33 73.355H957.207C954.667 73.355 953.398 72.0985 953.398 69.5853V65.58" stroke="black" stroke-width="2" stroke-linecap="round" stroke-linejoin="round"/>
<path d="M1154.72 76.8648C1159.3 76.5518 1163.88 76.0111 1168.46 75.2428C1169.51 75.0721 1170.58 74.8587 1171.66 74.6026C1173.82 71.5579 1173.37 68.499 1170.29 65.4258L1163.08 58.1698L1165.9 55.3528C1168.8 52.4788 1168.8 49.5906 1165.9 46.6882L1158.43 39.1761L1160.09 37.5115C1162.03 35.5481 1162.03 33.5847 1160.09 31.6213L1150.92 22.4872C1149.35 20.8938 1147.79 20.5808 1146.22 21.5482C1145.82 21.8043 1145.45 22.1031 1145.11 22.4446L1135.89 31.6213C1133.99 33.5847 1133.99 35.5481 1135.89 37.5115L1137.6 39.1761L1130.17 46.6455C1127.24 49.5764 1127.23 52.4788 1130.13 55.3528L1132.99 58.1698L1125.69 65.4258C1122.62 68.499 1122.18 71.5579 1124.37 74.6026C1130.2 75.7977 1136.05 76.5518 1141.91 76.8648C1146.41 77.1493 1150.67 77.1493 1154.72 76.8648V81.2184C1154.72 83.9501 1153.32 85.3159 1150.53 85.3159H1146.05C1143.29 85.3159 1141.91 83.9501 1141.91 81.2184V76.8648" fill="white"/>
<path d="M1162.72 82.597C1158.61 81.8376 1153.65 81.4579 1147.84 81.4579C1142.03 81.4579 1137.07 81.8376 1132.97 82.597C1128.87 83.3856 1126.81 84.3202 1126.81 85.4008C1126.81 86.4815 1128.87 87.4015 1132.97 88.1609C1137.07 88.9495 1142.03 89.3438 1147.84 89.3438C1153.65 89.3438 1158.61 88.9495 1162.72 88.1609C1166.82 87.4015 1168.87 86.4815 1168.87 85.4008C1168.87 84.3202 1166.82 83.3856 1162.72 82.597Z" fill="black" fill-opacity="0.0980392"/>
<path d="M1141.91 76.8647V81.2184C1141.91 83.95 1143.29 85.3159 1146.05 85.3159H1150.53C1153.32 85.3159 1154.72 83.95 1154.72 81.2184V76.8647C1150.67 77.1493 1146.41 77.1493 1141.91 76.8647Z" fill="#BB9A83"/>
<path d="M1160.09 37.5115C1162.03 35.5481 1162.03 33.5847 1160.09 31.6213L1153.31 24.8774C1153.83 26.1317 1153.26 26.6296 1151.6 26.3713C1149.93 26.1405 1148.17 26.1689 1146.31 26.4567C1144.45 26.7713 1143.22 26.2448 1142.64 24.8774L1135.89 31.6213C1133.99 33.5847 1133.99 35.5481 1135.89 37.5115L1137.6 39.1761C1145.01 41.0607 1151.96 41.0607 1158.43 39.1761L1160.09 37.5115ZM1162.65 43.4443C1161.27 43.4133 1159.69 43.769 1157.92 44.5114C1155.77 45.7555 1152.68 46.0116 1148.65 45.2797C1145.8 44.6529 1142.43 44.7952 1138.54 45.7065C1134.65 46.6245 1132.92 45.8705 1133.33 43.4443L1130.17 46.6455C1127.24 49.5764 1127.23 52.4788 1130.13 55.3528L1132.99 58.1698L1132.82 58.3405C1144.68 59.8051 1154.83 59.8051 1163.25 58.3405L1163.08 58.1698L1165.9 55.3528C1168.8 52.4788 1168.8 49.5906 1165.9 46.6882L1162.65 43.4443ZM1166.58 61.7124C1165.27 61.5947 1164.29 61.8224 1163.64 62.3954C1163.01 62.9752 1161.58 63.8716 1159.32 65.0844C1157.1 66.3226 1153.7 66.2799 1149.12 64.9563C1144.54 63.63 1140.23 62.9614 1136.19 62.9502C1132.18 62.971 1129.88 62.6011 1129.28 61.8405L1125.69 65.4258C1124.2 66.9134 1123.32 68.393 1123.04 69.8648C1139.69 73.0144 1156.31 73.0144 1172.9 69.8648C1172.65 68.393 1171.78 66.9134 1170.29 65.4258L1166.58 61.7124Z" fill="#518058"/>
<path d="M1158.43 39.1761L1160.09 37.5115C1162.03 35.5481 1162.03 33.5847 1160.09 31.6213L1150.92 22.4872C1149.35 20.8938 1147.79 20.5808 1146.22 21.5482L1156.81 31.6213C1158.74 33.5847 1158.76 35.5481 1156.85 37.5115L1155.1 39.1761L1162.57 46.6882C1165.47 49.5906 1165.47 52.4788 1162.57 55.3528L1159.79 58.1698L1167.01 65.4258C1170.08 68.499 1170.52 71.5579 1168.33 74.6026L1168.46 75.2428C1169.51 75.0721 1170.58 74.8587 1171.66 74.6026C1173.82 71.5579 1173.37 68.499 1170.29 65.4258L1163.08 58.1698L1165.9 55.3528C1168.8 52.4788 1168.8 49.5906 1165.9 46.6882L1158.43 39.1761Z" fill="black" fill-opacity="0.2"/>
<path d="M1154.72 76.8647C1154.03 76.9217 1153.35 76.9501 1152.67 76.9501C1152.24 76.9501 1151.83 76.9501 1151.43 76.9501C1148.24 77.0639 1145.07 77.0355 1141.91 76.8647V78.4013C1145.07 78.5436 1148.24 78.5863 1151.43 78.5294C1151.83 78.5294 1152.24 78.5294 1152.67 78.5294V81.2184C1152.67 83.8931 1151.37 85.259 1148.78 85.3159H1150.53C1153.32 85.3159 1154.72 83.95 1154.72 81.2184V76.8647Z" fill="black" fill-opacity="0.2"/>
<path d="M1154.72 76.8648C1159.3 76.5518 1163.88 76.0111 1168.46 75.2428C1169.51 75.0721 1170.58 74.8587 1171.66 74.6026C1173.82 71.5579 1173.37 68.499 1170.29 65.4258L1163.08 58.1698L1165.9 55.3528C1168.8 52.4788 1168.8 49.5906 1165.9 46.6882L1158.43 39.1761L1160.09 37.5115C1162.03 35.5481 1162.03 33.5847 1160.09 31.6213L1150.92 22.4872C1149.35 20.8938 1147.79 20.5808 1146.22 21.5482C1145.82 21.8043 1145.45 22.1031 1145.11 22.4446L1135.89 31.6213C1133.99 33.5847 1133.99 35.5481 1135.89 37.5115L1137.6 39.1761L1130.17 46.6455C1127.24 49.5764 1127.23 52.4788 1130.13 55.3528L1132.99 58.1698L1125.69 65.4258C1122.62 68.499 1122.18 71.5579 1124.37 74.6026C1130.2 75.7977 1136.05 76.5518 1141.91 76.8648C1146.41 77.1493 1150.67 77.1493 1154.72 76.8648ZM1154.72 76.8648V81.2184C1154.72 83.9501 1153.32 85.3159 1150.53 85.3159H1146.05C1143.29 85.3159 1141.91 83.9501 1141.91 81.2184V76.8648" stroke="black" stroke-width="2" stroke-linecap="round" stroke-linejoin="round"/>
<path d="M1203.35 82.6396C1210.04 82.1822 1216.74 81.3921 1223.43 80.2694C1224.97 80.0199 1226.53 79.708 1228.11 79.3337C1231.27 74.8843 1230.61 70.4141 1226.11 65.923L1215.57 55.3192L1219.69 51.2025C1223.93 47.0025 1223.93 42.7818 1219.69 38.5403L1208.77 27.5622L1211.21 25.1296C1214.03 22.2603 1214.03 19.391 1211.21 16.5218L1197.8 3.17343C1195.51 0.844755 1193.22 0.387335 1190.94 1.80118C1190.35 2.17543 1189.81 2.61206 1189.31 3.11106L1175.84 16.5218C1173.05 19.391 1173.05 22.2603 1175.84 25.1296L1178.34 27.5622L1167.48 38.4779C1163.2 42.761 1163.18 47.0025 1167.42 51.2025L1171.6 55.3192L1160.93 65.923C1156.44 70.4141 1155.8 74.8843 1159 79.3337C1167.52 81.0802 1176.07 82.1822 1184.64 82.6396C1191.21 83.0555 1197.44 83.0555 1203.35 82.6396V89.0019C1203.35 92.9939 1201.31 94.99 1197.24 94.99H1190.69C1186.65 94.99 1184.64 92.9939 1184.64 89.0019V82.6396" fill="white"/>
<path d="M1215.04 91.0166C1209.04 89.9068 1201.8 89.3519 1193.31 89.3519C1184.81 89.3519 1177.57 89.9068 1171.57 91.0166C1165.57 92.169 1162.57 93.5348 1162.57 95.1141C1162.57 96.6933 1165.57 98.0378 1171.57 99.1476C1177.57 100.3 1184.81 100.876 1193.31 100.876C1201.8 100.876 1209.04 100.3 1215.04 99.1476C1221.04 98.0378 1224.04 96.6933 1224.04 95.1141C1224.04 93.5348 1221.04 92.169 1215.04 91.0166Z" fill="black" fill-opacity="0.0980392"/>
<path d="M1184.64 82.6396V89.0019C1184.64 92.994 1186.65 94.99 1190.69 94.99H1197.24C1201.31 94.99 1203.35 92.994 1203.35 89.0019V82.6396C1197.44 83.0555 1191.21 83.0555 1184.64 82.6396Z" fill="#BB9A83"/>
<path d="M1211.21 25.1295C1214.04 22.2603 1214.04 19.391 1211.21 16.5217L1201.29 6.66644C1202.06 8.49937 1201.23 9.22708 1198.79 8.84958C1196.36 8.5122 1193.78 8.55378 1191.06 8.97433C1188.34 9.43402 1186.55 8.66473 1185.7 6.66644L1175.84 16.5217C1173.05 19.391 1173.05 22.2603 1175.84 25.1295L1178.34 27.5622C1189.17 30.3163 1199.32 30.3163 1208.77 27.5622L1211.21 25.1295ZM1214.95 33.7997C1212.92 33.7544 1210.62 34.2742 1208.03 35.3591C1204.89 37.1772 1200.38 37.5515 1194.49 36.4819C1190.32 35.5659 1185.39 35.7738 1179.71 37.1056C1174.03 38.4472 1171.49 37.3452 1172.1 33.7997L1167.48 38.4779C1163.2 42.761 1163.18 47.0025 1167.42 51.2024L1171.6 55.3192L1171.35 55.5687C1188.69 57.709 1203.51 57.709 1215.82 55.5687L1215.57 55.3192L1219.69 51.2024C1223.93 47.0025 1223.93 42.7818 1219.69 38.5402L1214.95 33.7997ZM1220.69 60.4964C1218.77 60.3244 1217.34 60.657 1216.38 61.4944C1215.48 62.3418 1213.38 63.6517 1210.08 65.424C1206.83 67.2336 1201.87 67.1712 1195.18 65.2369C1188.48 63.2987 1182.18 62.3215 1176.28 62.3053C1170.42 62.3356 1167.05 61.795 1166.17 60.6835L1160.93 65.923C1158.76 68.0969 1157.47 70.2592 1157.07 72.4101C1181.39 77.0128 1205.68 77.0128 1229.92 72.4101C1229.56 70.2592 1228.29 68.0969 1226.12 65.923L1220.69 60.4964Z" fill="#518058"/>
<path d="M1208.77 27.5622L1211.21 25.1296C1214.03 22.2603 1214.03 19.391 1211.21 16.5218L1197.8 3.17343C1195.51 0.844755 1193.22 0.387335 1190.94 1.80118L1206.4 16.5218C1209.23 19.391 1209.25 22.2603 1206.47 25.1296L1203.91 27.5622L1214.83 38.5403C1219.07 42.7818 1219.07 47.0025 1214.83 51.2025L1210.77 55.3192L1221.31 65.923C1225.8 70.4141 1226.45 74.8843 1223.25 79.3337L1223.43 80.2694C1224.97 80.0199 1226.53 79.708 1228.11 79.3337C1231.27 74.8843 1230.61 70.4141 1226.11 65.923L1215.57 55.3192L1219.69 51.2025C1223.93 47.0025 1223.93 42.7818 1219.69 38.5403L1208.77 27.5622Z" fill="black" fill-opacity="0.2"/>
<path d="M1203.35 82.6396C1202.35 82.7228 1201.35 82.7644 1200.35 82.7644C1199.73 82.7644 1199.13 82.7644 1198.55 82.7644C1193.89 82.9307 1189.25 82.8891 1184.64 82.6396V84.8852C1189.25 85.0931 1193.89 85.1555 1198.55 85.0723C1199.13 85.0723 1199.73 85.0723 1200.35 85.0723V89.0019C1200.35 92.9108 1198.46 94.9068 1194.68 94.99H1197.24C1201.31 94.99 1203.35 92.994 1203.35 89.0019V82.6396Z" fill="black" fill-opacity="0.2"/>
<path d="M1203.35 82.6396C1210.04 82.1822 1216.74 81.3921 1223.43 80.2694C1224.97 80.0199 1226.53 79.708 1228.11 79.3337C1231.27 74.8843 1230.61 70.4141 1226.11 65.923L1215.57 55.3192L1219.69 51.2025C1223.93 47.0025 1223.93 42.7818 1219.69 38.5403L1208.77 27.5622L1211.21 25.1296C1214.03 22.2603 1214.03 19.391 1211.21 16.5218L1197.8 3.17343C1195.51 0.844755 1193.22 0.387335 1190.94 1.80118C1190.35 2.17543 1189.81 2.61206 1189.31 3.11106L1175.84 16.5218C1173.05 19.391 1173.05 22.2603 1175.84 25.1296L1178.34 27.5622L1167.48 38.4779C1163.2 42.761 1163.18 47.0025 1167.42 51.2025L1171.6 55.3192L1160.93 65.923C1156.44 70.4141 1155.8 74.8843 1159 79.3337C1167.52 81.0802 1176.07 82.1822 1184.64 82.6396C1191.21 83.0555 1197.44 83.0555 1203.35 82.6396ZM1203.35 82.6396V89.0019C1203.35 92.9939 1201.31 94.99 1197.24 94.99H1190.69C1186.65 94.99 1184.64 92.9939 1184.64 89.0019V82.6396" stroke="black" stroke-width="2" stroke-linecap="round" stroke-linejoin="round"/>
<path d="M300.715 126.865C305.296 126.552 309.878 126.011 314.459 125.243C315.512 125.072 316.579 124.859 317.66 124.603C319.823 121.558 319.367 118.499 316.294 115.426L309.081 108.17L311.898 105.353C314.8 102.479 314.8 99.5906 311.898 96.6882L304.429 89.1761L306.093 87.5115C308.028 85.5481 308.028 83.5847 306.093 81.6213L296.916 72.4872C295.351 70.8938 293.786 70.5808 292.221 71.5482C291.823 71.8043 291.453 72.1031 291.112 72.4446L281.892 81.6213C279.986 83.5847 279.986 85.5481 281.892 87.5115L283.599 89.1761L276.173 96.6455C273.242 99.5764 273.228 102.479 276.13 105.353L278.99 108.17L271.691 115.426C268.618 118.499 268.177 121.558 270.368 124.603C276.201 125.798 282.049 126.552 287.91 126.865C292.406 127.149 296.675 127.149 300.715 126.865V131.218C300.715 133.95 299.321 135.316 296.532 135.316H292.051C289.29 135.316 287.91 133.95 287.91 131.218V126.865" fill="white"/>
<path d="M308.715 132.597C304.611 131.838 299.654 131.458 293.843 131.458C288.032 131.458 283.075 131.838 278.971 132.597C274.866 133.386 272.814 134.32 272.814 135.401C272.814 136.481 274.866 137.402 278.971 138.161C283.075 138.949 288.032 139.344 293.843 139.344C299.654 139.344 304.611 138.949 308.715 138.161C312.819 137.402 314.872 136.481 314.872 135.401C314.872 134.32 312.819 133.386 308.715 132.597Z" fill="black" fill-opacity="0.0980392"/>
<path d="M287.91 126.865V131.218C287.91 133.95 289.29 135.316 292.051 135.316H296.532C299.321 135.316 300.715 133.95 300.715 131.218V126.865C296.675 127.149 292.406 127.149 287.91 126.865Z" fill="#BB9A83"/>
<path d="M306.093 87.5115C308.028 85.5481 308.028 83.5847 306.093 81.6213L299.307 74.8774C299.832 76.1317 299.263 76.6296 297.6 76.3713C295.932 76.1405 294.168 76.1689 292.307 76.4567C290.447 76.7713 289.223 76.2448 288.636 74.8774L281.892 81.6213C279.986 83.5847 279.986 85.5481 281.892 87.5115L283.6 89.1761C291.014 91.0607 297.957 91.0607 304.429 89.1761L306.093 87.5115ZM308.654 93.4443C307.268 93.4133 305.689 93.769 303.917 94.5114C301.77 95.7555 298.682 96.0116 294.654 95.2797C291.801 94.6529 288.429 94.7952 284.539 95.7065C280.652 96.6245 278.917 95.8705 279.331 93.4443L276.173 96.6455C273.242 99.5764 273.228 102.479 276.13 105.353L278.99 108.17L278.819 108.341C290.685 109.805 300.829 109.805 309.252 108.341L309.081 108.17L311.898 105.353C314.801 102.479 314.801 99.5906 311.898 96.6882L308.654 93.4443ZM312.581 111.712C311.271 111.595 310.289 111.822 309.636 112.395C309.014 112.975 307.577 113.872 305.325 115.084C303.101 116.323 299.701 116.28 295.124 114.956C290.544 113.63 286.233 112.961 282.191 112.95C278.183 112.971 275.878 112.601 275.277 111.84L271.691 115.426C270.204 116.913 269.322 118.393 269.045 119.865C285.691 123.014 302.309 123.014 318.898 119.865C318.65 118.393 317.782 116.913 316.294 115.426L312.581 111.712Z" fill="#518058"/>
<path d="M304.429 89.1761L306.093 87.5115C308.028 85.5481 308.028 83.5847 306.093 81.6213L296.917 72.4872C295.351 70.8938 293.786 70.5808 292.221 71.5482L302.807 81.6213C304.742 83.5847 304.756 85.5481 302.849 87.5115L301.099 89.1761L308.569 96.6882C311.471 99.5906 311.471 102.479 308.569 105.353L305.794 108.17L313.008 115.426C316.081 118.499 316.522 121.558 314.331 124.603L314.459 125.243C315.512 125.072 316.579 124.859 317.66 124.603C319.823 121.558 319.368 118.499 316.294 115.426L309.081 108.17L311.898 105.353C314.8 102.479 314.8 99.5906 311.898 96.6882L304.429 89.1761Z" fill="black" fill-opacity="0.2"/>
<path d="M300.715 126.865C300.032 126.922 299.349 126.95 298.666 126.95C298.24 126.95 297.827 126.95 297.429 126.95C294.242 127.064 291.069 127.035 287.91 126.865V128.401C291.069 128.544 294.242 128.586 297.429 128.529C297.827 128.529 298.24 128.529 298.666 128.529V131.218C298.666 133.893 297.372 135.259 294.782 135.316H296.532C299.321 135.316 300.715 133.95 300.715 131.218V126.865Z" fill="black" fill-opacity="0.2"/>
<path d="M300.715 126.865C305.296 126.552 309.878 126.011 314.459 125.243C315.512 125.072 316.579 124.859 317.66 124.603C319.823 121.558 319.367 118.499 316.294 115.426L309.081 108.17L311.898 105.353C314.8 102.479 314.8 99.5906 311.898 96.6882L304.429 89.1761L306.093 87.5115C308.028 85.5481 308.028 83.5847 306.093 81.6213L296.916 72.4872C295.351 70.8938 293.786 70.5808 292.221 71.5482C291.823 71.8043 291.453 72.1031 291.112 72.4446L281.892 81.6213C279.986 83.5847 279.986 85.5481 281.892 87.5115L283.599 89.1761L276.173 96.6455C273.242 99.5764 273.228 102.479 276.13 105.353L278.99 108.17L271.691 115.426C268.618 118.499 268.177 121.558 270.368 124.603C276.201 125.798 282.049 126.552 287.91 126.865C292.406 127.149 296.675 127.149 300.715 126.865ZM300.715 126.865V131.218C300.715 133.95 299.321 135.316 296.532 135.316H292.051C289.29 135.316 287.91 133.95 287.91 131.218V126.865" stroke="black" stroke-width="2" stroke-linecap="round" stroke-linejoin="round"/>
<path d="M385.715 123.865C390.296 123.552 394.878 123.011 399.459 122.243C400.512 122.072 401.579 121.859 402.66 121.603C404.823 118.558 404.367 115.499 401.294 112.426L394.081 105.17L396.898 102.353C399.8 99.4788 399.8 96.5906 396.898 93.6882L389.429 86.1761L391.093 84.5115C393.028 82.5481 393.028 80.5847 391.093 78.6213L381.916 69.4872C380.351 67.8938 378.786 67.5808 377.221 68.5482C376.823 68.8043 376.453 69.1031 376.112 69.4446L366.892 78.6213C364.986 80.5847 364.986 82.5481 366.892 84.5115L368.599 86.1761L361.173 93.6455C358.242 96.5764 358.228 99.4788 361.13 102.353L363.99 105.17L356.691 112.426C353.618 115.499 353.177 118.558 355.368 121.603C361.201 122.798 367.049 123.552 372.91 123.865C377.406 124.149 381.675 124.149 385.715 123.865V128.218C385.715 130.95 384.321 132.316 381.532 132.316H377.051C374.29 132.316 372.91 130.95 372.91 128.218V123.865" fill="white"/>
<path d="M393.715 129.597C389.611 128.838 384.654 128.458 378.843 128.458C373.032 128.458 368.075 128.838 363.971 129.597C359.866 130.386 357.814 131.32 357.814 132.401C357.814 133.481 359.866 134.402 363.971 135.161C368.075 135.949 373.032 136.344 378.843 136.344C384.654 136.344 389.611 135.949 393.715 135.161C397.819 134.402 399.872 133.481 399.872 132.401C399.872 131.32 397.819 130.386 393.715 129.597Z" fill="black" fill-opacity="0.0980392"/>
<path d="M372.91 123.865V128.218C372.91 130.95 374.29 132.316 377.051 132.316H381.532C384.321 132.316 385.715 130.95 385.715 128.218V123.865C381.675 124.149 377.406 124.149 372.91 123.865Z" fill="#BB9A83"/>
<path d="M391.093 84.5115C393.028 82.5481 393.028 80.5847 391.093 78.6213L384.307 71.8774C384.832 73.1317 384.263 73.6296 382.6 73.3713C380.932 73.1405 379.168 73.1689 377.307 73.4567C375.447 73.7713 374.223 73.2448 373.636 71.8774L366.892 78.6213C364.986 80.5847 364.986 82.5481 366.892 84.5115L368.6 86.1761C376.014 88.0607 382.957 88.0607 389.429 86.1761L391.093 84.5115ZM393.654 90.4443C392.268 90.4133 390.689 90.769 388.917 91.5114C386.77 92.7555 383.682 93.0116 379.654 92.2797C376.801 91.6529 373.429 91.7952 369.539 92.7065C365.652 93.6245 363.917 92.8705 364.331 90.4443L361.173 93.6455C358.242 96.5764 358.228 99.4788 361.13 102.353L363.99 105.17L363.819 105.341C375.685 106.805 385.829 106.805 394.252 105.341L394.081 105.17L396.898 102.353C399.801 99.4788 399.801 96.5906 396.898 93.6882L393.654 90.4443ZM397.581 108.712C396.271 108.595 395.289 108.822 394.636 109.395C394.014 109.975 392.577 110.872 390.325 112.084C388.101 113.323 384.701 113.28 380.124 111.956C375.544 110.63 371.233 109.961 367.191 109.95C363.183 109.971 360.878 109.601 360.277 108.84L356.691 112.426C355.204 113.913 354.322 115.393 354.045 116.865C370.691 120.014 387.309 120.014 403.898 116.865C403.65 115.393 402.782 113.913 401.294 112.426L397.581 108.712Z" fill="#518058"/>
<path d="M389.429 86.1761L391.093 84.5115C393.028 82.5481 393.028 80.5847 391.093 78.6213L381.917 69.4872C380.351 67.8938 378.786 67.5808 377.221 68.5482L387.807 78.6213C389.742 80.5847 389.756 82.5481 387.849 84.5115L386.099 86.1761L393.569 93.6882C396.471 96.5906 396.471 99.4788 393.569 102.353L390.794 105.17L398.008 112.426C401.081 115.499 401.522 118.558 399.331 121.603L399.459 122.243C400.512 122.072 401.579 121.859 402.66 121.603C404.823 118.558 404.368 115.499 401.294 112.426L394.081 105.17L396.898 102.353C399.8 99.4788 399.8 96.5906 396.898 93.6882L389.429 86.1761Z" fill="black" fill-opacity="0.2"/>
<path d="M385.715 123.865C385.032 123.922 384.349 123.95 383.666 123.95C383.24 123.95 382.827 123.95 382.429 123.95C379.242 124.064 376.069 124.035 372.91 123.865V125.401C376.069 125.544 379.242 125.586 382.429 125.529C382.827 125.529 383.24 125.529 383.666 125.529V128.218C383.666 130.893 382.372 132.259 379.782 132.316H381.532C384.321 132.316 385.715 130.95 385.715 128.218V123.865Z" fill="black" fill-opacity="0.2"/>
<path d="M385.715 123.865C390.296 123.552 394.878 123.011 399.459 122.243C400.512 122.072 401.579 121.859 402.66 121.603C404.823 118.558 404.367 115.499 401.294 112.426L394.081 105.17L396.898 102.353C399.8 99.4788 399.8 96.5906 396.898 93.6882L389.429 86.1761L391.093 84.5115C393.028 82.5481 393.028 80.5847 391.093 78.6213L381.916 69.4872C380.351 67.8938 378.786 67.5808 377.221 68.5482C376.823 68.8043 376.453 69.1031 376.112 69.4446L366.892 78.6213C364.986 80.5847 364.986 82.5481 366.892 84.5115L368.599 86.1761L361.173 93.6455C358.242 96.5764 358.228 99.4788 361.13 102.353L363.99 105.17L356.691 112.426C353.618 115.499 353.177 118.558 355.368 121.603C361.201 122.798 367.049 123.552 372.91 123.865C377.406 124.149 381.675 124.149 385.715 123.865ZM385.715 123.865V128.218C385.715 130.95 384.321 132.316 381.532 132.316H377.051C374.29 132.316 372.91 130.95 372.91 128.218V123.865" stroke="black" stroke-width="2" stroke-linecap="round" stroke-linejoin="round"/>
<path d="M538.721 112.838C542.147 112.615 545.573 112.229 549 111.682C549.787 111.56 550.585 111.408 551.394 111.225C553.011 109.054 552.671 106.872 550.372 104.681L544.977 99.5065L547.084 97.4976C549.255 95.4481 549.255 93.3885 547.084 91.3188L541.498 85.9617L542.743 84.7747C544.19 83.3745 544.19 81.9744 542.743 80.5742L535.879 74.0606C534.709 72.9242 533.538 72.701 532.368 73.391C532.07 73.5736 531.793 73.7866 531.538 74.0301L524.642 80.5742C523.216 81.9744 523.216 83.3745 524.642 84.7747L525.919 85.9617L520.365 91.2883C518.173 93.3784 518.162 95.4481 520.333 97.4976L522.472 99.5065L517.013 104.681C514.714 106.872 514.384 109.054 516.023 111.225C520.386 112.077 524.759 112.615 529.144 112.838C532.506 113.041 535.698 113.041 538.721 112.838V115.943C538.721 117.891 537.678 118.865 535.592 118.865H532.24C530.176 118.865 529.144 117.891 529.144 115.943V112.838" fill="white"/>
<path d="M544.704 116.926C541.634 116.384 537.927 116.114 533.581 116.114C529.234 116.114 525.527 116.384 522.457 116.926C519.388 117.488 517.853 118.155 517.853 118.925C517.853 119.696 519.388 120.352 522.457 120.894C525.527 121.456 529.234 121.737 533.581 121.737C537.927 121.737 541.634 121.456 544.704 120.894C547.773 120.352 549.308 119.696 549.308 118.925C549.308 118.155 547.773 117.488 544.704 116.926Z" fill="black" fill-opacity="0.0980392"/>
<path d="M529.144 112.838V115.943C529.144 117.891 530.176 118.865 532.24 118.865H535.592C537.678 118.865 538.721 117.891 538.721 115.943V112.838C535.698 113.041 532.506 113.041 529.144 112.838Z" fill="#BB9A83"/>
<path d="M542.743 84.7746C544.19 83.3745 544.19 81.9744 542.743 80.5742L537.667 75.7651C538.06 76.6595 537.634 77.0146 536.39 76.8304C535.143 76.6658 533.824 76.6861 532.432 76.8913C531.041 77.1156 530.125 76.7402 529.686 75.7651L524.643 80.5742C523.217 81.9744 523.217 83.3745 524.643 84.7746L525.92 85.9617C531.465 87.3056 536.658 87.3056 541.498 85.9617L542.743 84.7746ZM544.658 89.0055C543.622 88.9834 542.441 89.237 541.115 89.7664C539.509 90.6536 537.2 90.8362 534.188 90.3143C532.054 89.8673 529.532 89.9688 526.622 90.6187C523.715 91.2733 522.417 90.7356 522.727 89.0055L520.365 91.2883C518.173 93.3783 518.162 95.4481 520.333 97.4976L522.472 99.5065L522.344 99.6282C531.218 100.673 538.806 100.673 545.105 99.6282L544.978 99.5065L547.085 97.4976C549.255 95.4481 549.255 93.3885 547.085 91.3187L544.658 89.0055ZM547.595 102.033C546.615 101.949 545.881 102.111 545.393 102.52C544.927 102.933 543.853 103.573 542.168 104.437C540.505 105.32 537.962 105.29 534.539 104.346C531.113 103.4 527.889 102.923 524.866 102.915C521.868 102.93 520.144 102.667 519.694 102.124L517.013 104.681C515.9 105.742 515.241 106.797 515.034 107.846C527.484 110.092 539.912 110.092 552.32 107.846C552.134 106.797 551.485 105.742 550.373 104.681L547.595 102.033Z" fill="#518058"/>
<path d="M541.498 85.9617L542.743 84.7747C544.19 83.3745 544.19 81.9744 542.743 80.5742L535.879 74.0606C534.709 72.9242 533.538 72.701 532.368 73.391L540.285 80.5742C541.732 81.9744 541.742 83.3745 540.317 84.7747L539.008 85.9617L544.594 91.3188C546.765 93.3885 546.765 95.4481 544.594 97.4976L542.519 99.5065L547.914 104.681C550.213 106.872 550.543 109.054 548.904 111.225L549 111.682C549.787 111.56 550.585 111.408 551.394 111.225C553.011 109.054 552.671 106.872 550.372 104.681L544.977 99.5065L547.084 97.4976C549.255 95.4481 549.255 93.3885 547.084 91.3188L541.498 85.9617Z" fill="black" fill-opacity="0.2"/>
<path d="M538.721 112.838C538.21 112.879 537.699 112.899 537.188 112.899C536.869 112.899 536.56 112.899 536.262 112.899C533.879 112.98 531.506 112.96 529.144 112.838V113.934C531.506 114.035 533.879 114.066 536.262 114.025C536.56 114.025 536.869 114.025 537.188 114.025V115.943C537.188 117.85 536.22 118.824 534.283 118.865H535.592C537.678 118.865 538.721 117.891 538.721 115.943V112.838Z" fill="black" fill-opacity="0.2"/>
<path d="M538.721 112.838C542.147 112.615 545.573 112.229 549 111.682C549.787 111.56 550.585 111.408 551.394 111.225C553.011 109.054 552.671 106.872 550.372 104.681L544.977 99.5065L547.084 97.4976C549.255 95.4481 549.255 93.3885 547.084 91.3188L541.498 85.9617L542.743 84.7747C544.19 83.3745 544.19 81.9744 542.743 80.5742L535.879 74.0606C534.709 72.9242 533.538 72.701 532.368 73.391C532.07 73.5736 531.793 73.7866 531.538 74.0301L524.642 80.5742C523.216 81.9744 523.216 83.3745 524.642 84.7747L525.919 85.9617L520.365 91.2883C518.173 93.3784 518.162 95.4481 520.333 97.4976L522.472 99.5065L517.013 104.681C514.714 106.872 514.384 109.054 516.023 111.225C520.386 112.077 524.759 112.615 529.144 112.838C532.506 113.041 535.698 113.041 538.721 112.838ZM538.721 112.838V115.943C538.721 117.891 537.678 118.865 535.592 118.865H532.24C530.176 118.865 529.144 117.891 529.144 115.943V112.838" stroke="black" stroke-width="2" stroke-linecap="round" stroke-linejoin="round"/>
<path d="M509.641 117.349C513.489 117.099 517.337 116.666 521.185 116.05C522.07 115.913 522.966 115.743 523.874 115.537C525.691 113.099 525.309 110.649 522.727 108.188L516.668 102.376L519.034 100.12C521.472 97.8183 521.472 95.5051 519.034 93.1805L512.76 87.164L514.158 85.8308C515.784 84.2583 515.784 82.6858 514.158 81.1133L506.45 73.7977C505.135 72.5215 503.821 72.2708 502.506 73.0457C502.171 73.2508 501.861 73.4901 501.574 73.7635L493.829 81.1133C492.228 82.6858 492.228 84.2583 493.829 85.8308L495.264 87.164L489.025 93.1463C486.563 95.4937 486.551 97.8183 488.989 100.12L491.391 102.376L485.26 108.188C482.679 110.649 482.309 113.099 484.149 115.537C489.049 116.495 493.961 117.099 498.885 117.349C502.661 117.577 506.247 117.577 509.641 117.349V120.836C509.641 123.024 508.47 124.118 506.127 124.118H502.363C500.044 124.118 498.885 123.024 498.885 120.836V117.349" fill="white"/>
<path d="M516.361 121.94C512.913 121.332 508.749 121.028 503.868 121.028C498.987 121.028 494.823 121.332 491.375 121.94C487.928 122.572 486.204 123.32 486.204 124.186C486.204 125.051 487.928 125.788 491.375 126.396C494.823 127.028 498.987 127.344 503.868 127.344C508.749 127.344 512.913 127.028 516.361 126.396C519.808 125.788 521.532 125.051 521.532 124.186C521.532 123.32 519.808 122.572 516.361 121.94Z" fill="black" fill-opacity="0.0980392"/>
<path d="M498.885 117.349V120.836C498.885 123.024 500.044 124.118 502.363 124.118H506.127C508.47 124.118 509.641 123.024 509.641 120.836V117.349C506.247 117.577 502.661 117.577 498.885 117.349Z" fill="#BB9A83"/>
<path d="M514.158 85.8307C515.784 84.2582 515.784 82.6857 514.158 81.1132L508.458 75.712C508.899 76.7166 508.421 77.1154 507.024 76.9085C505.623 76.7236 504.141 76.7464 502.578 76.9769C501.015 77.2288 499.987 76.8072 499.494 75.712L493.83 81.1132C492.228 82.6857 492.228 84.2582 493.83 85.8307L495.264 87.164C501.492 88.6733 507.324 88.6733 512.76 87.164L514.158 85.8307ZM516.31 90.5824C515.146 90.5576 513.819 90.8425 512.33 91.4371C510.527 92.4335 507.933 92.6386 504.55 92.0524C502.153 91.5504 499.321 91.6643 496.053 92.3942C492.788 93.1295 491.33 92.5255 491.678 90.5824L489.025 93.1463C486.563 95.4937 486.551 97.8182 488.989 100.12L491.392 102.376L491.248 102.513C501.215 103.686 509.736 103.686 516.812 102.513L516.668 102.376L519.035 100.12C521.473 97.8182 521.473 95.5051 519.035 93.1805L516.31 90.5824ZM519.608 105.214C518.507 105.119 517.683 105.302 517.134 105.761C516.612 106.225 515.405 106.943 513.513 107.914C511.645 108.906 508.789 108.872 504.944 107.812C501.097 106.749 497.476 106.214 494.081 106.205C490.713 106.222 488.777 105.925 488.272 105.316L485.261 108.188C484.011 109.379 483.27 110.564 483.038 111.743C497.021 114.265 510.979 114.265 524.914 111.743C524.706 110.564 523.977 109.379 522.727 108.188L519.608 105.214Z" fill="#518058"/>
<path d="M512.76 87.164L514.158 85.8308C515.784 84.2583 515.784 82.6858 514.158 81.1133L506.45 73.7977C505.135 72.5215 503.82 72.2708 502.506 73.0457L511.397 81.1133C513.023 82.6858 513.035 84.2583 511.433 85.8308L509.963 87.164L516.238 93.1805C518.676 95.5051 518.676 97.8183 516.238 100.12L513.907 102.376L519.966 108.188C522.548 110.649 522.918 113.099 521.078 115.537L521.185 116.05C522.07 115.913 522.966 115.743 523.874 115.537C525.691 113.099 525.309 110.649 522.727 108.188L516.668 102.376L519.034 100.12C521.472 97.8183 521.472 95.5051 519.034 93.1805L512.76 87.164Z" fill="black" fill-opacity="0.2"/>
<path d="M509.641 117.349C509.067 117.395 508.493 117.418 507.92 117.418C507.561 117.418 507.215 117.418 506.88 117.418C504.203 117.509 501.538 117.486 498.885 117.349V118.58C501.538 118.694 504.203 118.728 506.88 118.682C507.215 118.682 507.561 118.682 507.92 118.682V120.836C507.92 122.978 506.832 124.072 504.657 124.118H506.127C508.47 124.118 509.641 123.024 509.641 120.836V117.349Z" fill="black" fill-opacity="0.2"/>
<path d="M509.641 117.349C513.489 117.099 517.337 116.666 521.185 116.05C522.07 115.913 522.966 115.743 523.874 115.537C525.691 113.099 525.309 110.649 522.727 108.188L516.668 102.376L519.034 100.12C521.472 97.8183 521.472 95.5051 519.034 93.1805L512.76 87.164L514.158 85.8308C515.784 84.2583 515.784 82.6858 514.158 81.1133L506.45 73.7977C505.135 72.5215 503.821 72.2708 502.506 73.0457C502.171 73.2508 501.861 73.4901 501.574 73.7635L493.829 81.1133C492.228 82.6858 492.228 84.2583 493.829 85.8308L495.264 87.164L489.025 93.1463C486.563 95.4937 486.551 97.8183 488.989 100.12L491.391 102.376L485.26 108.188C482.679 110.649 482.309 113.099 484.149 115.537C489.049 116.495 493.961 117.099 498.885 117.349C502.661 117.577 506.247 117.577 509.641 117.349ZM509.641 117.349V120.836C509.641 123.024 508.47 124.118 506.127 124.118H502.363C500.044 124.118 498.885 123.024 498.885 120.836V117.349" stroke="black" stroke-width="2" stroke-linecap="round" stroke-linejoin="round"/>
<path d="M221.455 90.8138C224.12 90.6401 226.786 90.3402 229.452 89.9139C230.064 89.8192 230.685 89.7008 231.315 89.5587C232.573 87.8695 232.308 86.1724 230.52 84.4674L226.322 80.4417L227.962 78.8788C229.651 77.2843 229.651 75.6819 227.962 74.0716L223.615 69.9039L224.584 68.9803C225.71 67.891 225.71 66.8017 224.584 65.7124L219.244 60.6448C218.333 59.7607 217.423 59.587 216.512 60.1238C216.28 60.2659 216.065 60.4317 215.866 60.6211L210.502 65.7124C209.392 66.8017 209.392 67.891 210.502 68.9803L211.495 69.9039L207.174 74.048C205.468 75.674 205.46 77.2843 207.149 78.8788L208.813 80.4417L204.566 84.4674C202.778 86.1724 202.521 87.8695 203.796 89.5587C207.19 90.2218 210.593 90.6401 214.004 90.8138C216.62 90.9717 219.103 90.9717 221.455 90.8138V93.2292C221.455 94.7448 220.643 95.5025 219.021 95.5025H216.413C214.807 95.5025 214.004 94.7448 214.004 93.2292V90.8138" fill="white"/>
<path d="M226.11 93.994C223.722 93.5727 220.837 93.3621 217.456 93.3621C214.074 93.3621 211.19 93.5727 208.802 93.994C206.414 94.4315 205.219 94.9501 205.219 95.5496C205.219 96.1492 206.414 96.6596 208.802 97.0809C211.19 97.5184 214.074 97.7372 217.456 97.7372C220.837 97.7372 223.722 97.5184 226.11 97.0809C228.498 96.6596 229.692 96.1492 229.692 95.5496C229.692 94.9501 228.498 94.4315 226.11 93.994Z" fill="black" fill-opacity="0.0980392"/>
<path d="M214.004 90.8138V93.2292C214.004 94.7448 214.807 95.5025 216.413 95.5025H219.021C220.643 95.5025 221.455 94.7448 221.455 93.2292V90.8138C219.103 90.9717 216.62 90.9717 214.004 90.8138Z" fill="#BB9A83"/>
<path d="M224.584 68.9803C225.71 67.891 225.71 66.8017 224.584 65.7124L220.635 61.9708C220.941 62.6667 220.61 62.943 219.642 62.7996C218.672 62.6716 217.645 62.6873 216.562 62.847C215.48 63.0215 214.768 62.7295 214.426 61.9708L210.502 65.7124C209.393 66.8017 209.393 67.891 210.502 68.9803L211.496 69.9038C215.81 70.9494 219.85 70.9494 223.616 69.9038L224.584 68.9803ZM226.074 72.2719C225.268 72.2547 224.349 72.452 223.318 72.8639C222.068 73.5541 220.272 73.6962 217.928 73.2901C216.268 72.9424 214.306 73.0213 212.042 73.5269C209.781 74.0363 208.771 73.6179 209.012 72.2719L207.174 74.0479C205.469 75.674 205.46 77.2842 207.149 78.8787L208.813 80.4417L208.714 80.5364C215.618 81.3489 221.521 81.3489 226.422 80.5364L226.323 80.4417L227.962 78.8787C229.651 77.2842 229.651 75.6819 227.962 74.0716L226.074 72.2719ZM228.359 82.4071C227.597 82.3418 227.026 82.4681 226.646 82.786C226.284 83.1078 225.448 83.605 224.137 84.2779C222.843 84.9649 220.865 84.9412 218.201 84.2069C215.536 83.471 213.028 83.1 210.676 83.0939C208.343 83.1054 207.002 82.9002 206.652 82.4782L204.566 84.4673C203.701 85.2927 203.187 86.1136 203.026 86.9301C212.712 88.6776 222.382 88.6776 232.035 86.9301C231.891 86.1136 231.386 85.2927 230.52 84.4673L228.359 82.4071Z" fill="#518058"/>
<path d="M223.615 69.9039L224.584 68.9803C225.71 67.891 225.71 66.8017 224.584 65.7124L219.244 60.6448C218.333 59.7607 217.423 59.587 216.512 60.1238L222.671 65.7124C223.797 66.8017 223.806 67.891 222.696 68.9803L221.678 69.9039L226.024 74.0716C227.713 75.6819 227.713 77.2843 226.024 78.8788L224.41 80.4417L228.607 84.4674C230.395 86.1724 230.652 87.8695 229.377 89.5587L229.452 89.9139C230.064 89.8192 230.685 89.7008 231.314 89.5587C232.573 87.8695 232.308 86.1724 230.52 84.4674L226.322 80.4417L227.961 78.8788C229.65 77.2843 229.65 75.6819 227.961 74.0716L223.615 69.9039Z" fill="black" fill-opacity="0.2"/>
<path d="M221.455 90.8138C221.057 90.8454 220.66 90.8611 220.262 90.8611C220.014 90.8611 219.774 90.8611 219.542 90.8611C217.688 90.9243 215.842 90.9085 214.004 90.8138V91.6663C215.842 91.7452 217.688 91.7689 219.542 91.7373C219.774 91.7373 220.014 91.7373 220.262 91.7373V93.2292C220.262 94.7132 219.509 95.471 218.002 95.5025H219.021C220.643 95.5025 221.455 94.7448 221.455 93.2292V90.8138Z" fill="black" fill-opacity="0.2"/>
<path d="M221.455 90.8138C224.12 90.6401 226.786 90.3402 229.452 89.9139C230.064 89.8192 230.685 89.7008 231.315 89.5587C232.573 87.8695 232.308 86.1724 230.52 84.4674L226.322 80.4417L227.962 78.8788C229.651 77.2843 229.651 75.6819 227.962 74.0716L223.615 69.9039L224.584 68.9803C225.71 67.891 225.71 66.8017 224.584 65.7124L219.244 60.6448C218.333 59.7607 217.423 59.587 216.512 60.1238C216.28 60.2659 216.065 60.4317 215.866 60.6211L210.502 65.7124C209.392 66.8017 209.392 67.891 210.502 68.9803L211.495 69.9039L207.174 74.048C205.468 75.674 205.46 77.2843 207.149 78.8788L208.813 80.4417L204.566 84.4674C202.778 86.1724 202.521 87.8695 203.796 89.5587C207.19 90.2218 210.593 90.6401 214.004 90.8138C216.62 90.9717 219.103 90.9717 221.455 90.8138ZM221.455 90.8138V93.2292C221.455 94.7448 220.643 95.5025 219.021 95.5025H216.413C214.807 95.5025 214.004 94.7448 214.004 93.2292V90.8138" stroke="black" stroke-width="2" stroke-linecap="round" stroke-linejoin="round"/>
<path d="M240.82 99.2879C243.683 99.1014 246.546 98.7793 249.409 98.3215C250.067 98.2197 250.734 98.0926 251.41 97.94C252.762 96.1257 252.477 94.303 250.556 92.4719L246.049 88.1482L247.809 86.4697C249.623 84.7572 249.623 83.0362 247.809 81.3067L243.141 76.8305L244.181 75.8386C245.391 74.6687 245.391 73.4988 244.181 72.3289L238.446 66.8862C237.468 65.9367 236.49 65.7502 235.512 66.3267C235.263 66.4793 235.032 66.6573 234.819 66.8608L229.057 72.3289C227.865 73.4988 227.865 74.6687 229.057 75.8386L230.124 76.8305L225.483 81.2813C223.651 83.0277 223.642 84.7572 225.456 86.4697L227.243 88.1482L222.682 92.4719C220.761 94.303 220.486 96.1257 221.855 97.94C225.5 98.6521 229.155 99.1014 232.818 99.2879C235.628 99.4575 238.295 99.4575 240.82 99.2879V101.882C240.82 103.51 239.949 104.324 238.206 104.324H235.405C233.681 104.324 232.818 103.51 232.818 101.882V99.2879" fill="white"/>
<path d="M245.82 102.704C243.255 102.251 240.157 102.025 236.526 102.025C232.894 102.025 229.796 102.251 227.231 102.704C224.666 103.173 223.384 103.73 223.384 104.374C223.384 105.018 224.666 105.566 227.231 106.019C229.796 106.489 232.894 106.724 236.526 106.724C240.157 106.724 243.255 106.489 245.82 106.019C248.385 105.566 249.667 105.018 249.667 104.374C249.667 103.73 248.385 103.173 245.82 102.704Z" fill="black" fill-opacity="0.0980392"/>
<path d="M232.818 99.288V101.882C232.818 103.51 233.681 104.324 235.406 104.324H238.206C239.949 104.324 240.82 103.51 240.82 101.882V99.288C238.295 99.4575 235.628 99.4575 232.818 99.288Z" fill="#BB9A83"/>
<path d="M244.181 75.8386C245.391 74.6687 245.391 73.4988 244.181 72.3288L239.94 68.3104C240.268 69.0578 239.913 69.3545 238.873 69.2006C237.831 69.063 236.729 69.08 235.566 69.2514C234.403 69.4389 233.638 69.1252 233.272 68.3104L229.057 72.3288C227.866 73.4988 227.866 74.6687 229.057 75.8386L230.124 76.8305C234.758 77.9535 239.097 77.9535 243.141 76.8305L244.181 75.8386ZM245.782 79.3738C244.916 79.3553 243.929 79.5673 242.821 80.0096C241.479 80.751 239.55 80.9036 237.033 80.4674C235.25 80.0939 233.142 80.1787 230.711 80.7218C228.282 81.2688 227.197 80.8195 227.457 79.3738L225.483 81.2813C223.651 83.0277 223.642 84.7571 225.456 86.4696L227.243 88.1482L227.136 88.2499C234.552 89.1226 240.891 89.1226 246.155 88.2499L246.049 88.1482L247.809 86.4696C249.623 84.7571 249.623 83.0362 247.809 81.3067L245.782 79.3738ZM248.236 90.2592C247.417 90.189 246.803 90.3247 246.395 90.6661C246.007 91.0116 245.109 91.5457 243.701 92.2684C242.312 93.0062 240.187 92.9808 237.326 92.1921C234.464 91.4018 231.77 91.0033 229.244 90.9967C226.739 91.0091 225.298 90.7887 224.923 90.3355L222.682 92.4718C221.752 93.3582 221.201 94.2399 221.028 95.1169C231.431 96.9936 241.816 96.9936 252.184 95.1169C252.029 94.2399 251.486 93.3582 250.557 92.4718L248.236 90.2592Z" fill="#518058"/>
<path d="M243.141 76.8305L244.181 75.8386C245.39 74.6687 245.39 73.4988 244.181 72.3289L238.446 66.8862C237.468 65.9367 236.49 65.7502 235.512 66.3267L242.127 72.3289C243.336 73.4988 243.345 74.6687 242.154 75.8386L241.06 76.8305L245.728 81.3067C247.542 83.0362 247.542 84.7572 245.728 86.4697L243.994 88.1482L248.502 92.4719C250.423 94.303 250.699 96.1257 249.329 97.94L249.409 98.3215C250.067 98.2197 250.734 98.0926 251.41 97.94C252.761 96.1257 252.477 94.303 250.556 92.4719L246.048 88.1482L247.809 86.4697C249.623 84.7572 249.623 83.0362 247.809 81.3067L243.141 76.8305Z" fill="black" fill-opacity="0.2"/>
<path d="M240.82 99.288C240.394 99.3219 239.967 99.3388 239.54 99.3388C239.273 99.3388 239.015 99.3388 238.766 99.3388C236.775 99.4067 234.792 99.3897 232.818 99.288V100.204C234.792 100.288 236.775 100.314 238.766 100.28C239.015 100.28 239.273 100.28 239.54 100.28V101.882C239.54 103.476 238.731 104.29 237.113 104.324H238.206C239.949 104.324 240.82 103.51 240.82 101.882V99.288Z" fill="black" fill-opacity="0.2"/>
<path d="M240.82 99.2879C243.683 99.1014 246.546 98.7793 249.409 98.3215C250.067 98.2197 250.734 98.0926 251.41 97.94C252.762 96.1257 252.477 94.303 250.556 92.4719L246.049 88.1482L247.809 86.4697C249.623 84.7572 249.623 83.0362 247.809 81.3067L243.141 76.8305L244.181 75.8386C245.391 74.6687 245.391 73.4988 244.181 72.3289L238.446 66.8862C237.468 65.9367 236.49 65.7502 235.512 66.3267C235.263 66.4793 235.032 66.6573 234.819 66.8608L229.057 72.3289C227.865 73.4988 227.865 74.6687 229.057 75.8386L230.124 76.8305L225.483 81.2813C223.651 83.0277 223.642 84.7572 225.456 86.4697L227.243 88.1482L222.682 92.4719C220.761 94.303 220.486 96.1257 221.855 97.94C225.5 98.6521 229.155 99.1014 232.818 99.2879C235.628 99.4575 238.295 99.4575 240.82 99.2879ZM240.82 99.2879V101.882C240.82 103.51 239.949 104.324 238.206 104.324H235.405C233.681 104.324 232.818 103.51 232.818 101.882V99.2879" stroke="black" stroke-width="2" stroke-linecap="round" stroke-linejoin="round"/>
<path d="M602.455 101.994C605.12 101.821 607.786 101.521 610.452 101.094C611.064 101 611.685 100.881 612.315 100.739C613.573 99.0499 613.308 97.3528 611.52 95.6478L607.322 91.6221L608.962 90.0592C610.651 88.4647 610.651 86.8623 608.962 85.252L604.615 81.0842L605.584 80.1607C606.71 79.0714 606.71 77.9821 605.584 76.8928L600.244 71.8251C599.333 70.9411 598.423 70.7674 597.512 71.3042C597.28 71.4462 597.065 71.612 596.866 71.8015L591.502 76.8928C590.392 77.9821 590.392 79.0714 591.502 80.1607L592.495 81.0842L588.174 85.2283C586.468 86.8544 586.46 88.4647 588.149 90.0592L589.813 91.6221L585.566 95.6478C583.778 97.3528 583.521 99.0499 584.796 100.739C588.19 101.402 591.593 101.821 595.004 101.994C597.62 102.152 600.103 102.152 602.455 101.994V104.41C602.455 105.925 601.643 106.683 600.021 106.683H597.413C595.807 106.683 595.004 105.925 595.004 104.41V101.994" fill="white"/>
<path d="M607.11 105.174C604.722 104.753 601.837 104.542 598.456 104.542C595.074 104.542 592.19 104.753 589.802 105.174C587.414 105.612 586.219 106.13 586.219 106.73C586.219 107.33 587.414 107.84 589.802 108.261C592.19 108.699 595.074 108.918 598.456 108.918C601.837 108.918 604.722 108.699 607.11 108.261C609.498 107.84 610.692 107.33 610.692 106.73C610.692 106.13 609.498 105.612 607.11 105.174Z" fill="black" fill-opacity="0.0980392"/>
<path d="M595.004 101.994V104.41C595.004 105.925 595.807 106.683 597.413 106.683H600.021C601.643 106.683 602.455 105.925 602.455 104.41V101.994C600.103 102.152 597.62 102.152 595.004 101.994Z" fill="#BB9A83"/>
<path d="M605.584 80.1606C606.71 79.0713 606.71 77.982 605.584 76.8927L601.635 73.1512C601.941 73.847 601.61 74.1233 600.642 73.98C599.672 73.8519 598.645 73.8677 597.562 74.0274C596.48 74.2019 595.768 73.9098 595.426 73.1512L591.502 76.8927C590.393 77.982 590.393 79.0713 591.502 80.1606L592.496 81.0842C596.81 82.1298 600.85 82.1298 604.616 81.0842L605.584 80.1606ZM607.074 83.4522C606.268 83.435 605.349 83.6324 604.318 84.0442C603.068 84.7345 601.272 84.8766 598.928 84.4705C597.268 84.1227 595.306 84.2017 593.042 84.7073C590.781 85.2166 589.771 84.7983 590.012 83.4522L588.174 85.2283C586.469 86.8543 586.46 88.4646 588.149 90.0591L589.813 91.622L589.714 91.7167C596.618 92.5293 602.521 92.5293 607.422 91.7167L607.323 91.622L608.962 90.0591C610.651 88.4646 610.651 86.8622 608.962 85.2519L607.074 83.4522ZM609.359 93.5875C608.597 93.5222 608.026 93.6485 607.646 93.9664C607.284 94.2881 606.448 94.7854 605.137 95.4583C603.843 96.1452 601.865 96.1216 599.201 95.3872C596.536 94.6514 594.028 94.2804 591.676 94.2742C589.343 94.2858 588.002 94.0805 587.652 93.6585L585.566 95.6477C584.701 96.473 584.187 97.2939 584.026 98.1105C593.712 99.8579 603.382 99.8579 613.035 98.1105C612.891 97.2939 612.386 96.473 611.52 95.6477L609.359 93.5875Z" fill="#518058"/>
<path d="M604.615 81.0842L605.584 80.1607C606.71 79.0714 606.71 77.9821 605.584 76.8928L600.244 71.8251C599.333 70.9411 598.423 70.7674 597.512 71.3042L603.671 76.8928C604.797 77.9821 604.806 79.0714 603.696 80.1607L602.678 81.0842L607.024 85.252C608.713 86.8623 608.713 88.4647 607.024 90.0592L605.41 91.6221L609.607 95.6478C611.395 97.3528 611.652 99.0499 610.377 100.739L610.452 101.094C611.064 101 611.685 100.881 612.314 100.739C613.573 99.0499 613.308 97.3528 611.52 95.6478L607.322 91.6221L608.961 90.0592C610.65 88.4647 610.65 86.8623 608.961 85.252L604.615 81.0842Z" fill="black" fill-opacity="0.2"/>
<path d="M602.455 101.994C602.057 102.026 601.66 102.042 601.262 102.042C601.014 102.042 600.774 102.042 600.542 102.042C598.688 102.105 596.842 102.089 595.004 101.994V102.847C596.842 102.926 598.688 102.949 600.542 102.918C600.774 102.918 601.014 102.918 601.262 102.918V104.41C601.262 105.894 600.509 106.651 599.002 106.683H600.021C601.643 106.683 602.455 105.925 602.455 104.41V101.994Z" fill="black" fill-opacity="0.2"/>
<path d="M602.455 101.994C605.12 101.821 607.786 101.521 610.452 101.094C611.064 101 611.685 100.881 612.315 100.739C613.573 99.0499 613.308 97.3528 611.52 95.6478L607.322 91.6221L608.962 90.0592C610.651 88.4647 610.651 86.8623 608.962 85.252L604.615 81.0842L605.584 80.1607C606.71 79.0714 606.71 77.9821 605.584 76.8928L600.244 71.8251C599.333 70.9411 598.423 70.7674 597.512 71.3042C597.28 71.4462 597.065 71.612 596.866 71.8015L591.502 76.8928C590.392 77.9821 590.392 79.0714 591.502 80.1607L592.495 81.0842L588.174 85.2283C586.468 86.8544 586.46 88.4647 588.149 90.0592L589.813 91.6221L585.566 95.6478C583.778 97.3528 583.521 99.0499 584.796 100.739C588.19 101.402 591.593 101.821 595.004 101.994C597.62 102.152 600.103 102.152 602.455 101.994ZM602.455 101.994V104.41C602.455 105.925 601.643 106.683 600.021 106.683H597.413C595.807 106.683 595.004 105.925 595.004 104.41V101.994" stroke="black" stroke-width="2" stroke-linecap="round" stroke-linejoin="round"/>
<path d="M623.82 110.468C626.683 110.282 629.546 109.96 632.409 109.502C633.067 109.4 633.734 109.273 634.41 109.12C635.762 107.306 635.477 105.483 633.556 103.652L629.049 99.3286L630.809 97.65C632.623 95.9375 632.623 94.2166 630.809 92.4871L626.141 88.0109L627.181 87.019C628.391 85.8491 628.391 84.6792 627.181 83.5092L621.446 78.0666C620.468 77.1171 619.49 76.9305 618.512 77.507C618.263 77.6596 618.032 77.8377 617.819 78.0411L612.057 83.5092C610.865 84.6792 610.865 85.8491 612.057 87.019L613.124 88.0109L608.483 92.4617C606.651 94.2081 606.642 95.9375 608.456 97.65L610.243 99.3286L605.682 103.652C603.761 105.483 603.486 107.306 604.855 109.12C608.5 109.832 612.155 110.282 615.818 110.468C618.628 110.638 621.295 110.638 623.82 110.468V113.062C623.82 114.69 622.949 115.504 621.206 115.504H618.405C616.681 115.504 615.818 114.69 615.818 113.062V110.468" fill="white"/>
<path d="M628.82 113.884C626.255 113.431 623.157 113.205 619.526 113.205C615.894 113.205 612.796 113.431 610.231 113.884C607.666 114.354 606.384 114.911 606.384 115.555C606.384 116.199 607.666 116.747 610.231 117.199C612.796 117.669 615.894 117.904 619.526 117.904C623.157 117.904 626.255 117.669 628.82 117.199C631.385 116.747 632.667 116.199 632.667 115.555C632.667 114.911 631.385 114.354 628.82 113.884Z" fill="black" fill-opacity="0.0980392"/>
<path d="M615.818 110.468V113.062C615.818 114.69 616.681 115.504 618.406 115.504H621.206C622.949 115.504 623.82 114.69 623.82 113.062V110.468C621.295 110.638 618.628 110.638 615.818 110.468Z" fill="#BB9A83"/>
<path d="M627.181 87.019C628.391 85.849 628.391 84.6791 627.181 83.5092L622.94 79.4908C623.268 80.2381 622.913 80.5349 621.873 80.3809C620.831 80.2434 619.729 80.2603 618.566 80.4318C617.403 80.6192 616.638 80.3056 616.272 79.4908L612.057 83.5092C610.866 84.6791 610.866 85.849 612.057 87.019L613.124 88.0109C617.758 89.1338 622.097 89.1338 626.141 88.0109L627.181 87.019ZM628.782 90.5542C627.916 90.5357 626.929 90.7476 625.821 91.19C624.479 91.9313 622.55 92.0839 620.033 91.6478C618.25 91.2743 616.142 91.3591 613.711 91.9021C611.282 92.4491 610.197 91.9998 610.457 90.5542L608.483 92.4616C606.651 94.208 606.642 95.9375 608.456 97.65L610.243 99.3286L610.136 99.4303C617.552 100.303 623.891 100.303 629.155 99.4303L629.049 99.3286L630.809 97.65C632.623 95.9375 632.623 94.2165 630.809 92.4871L628.782 90.5542ZM631.236 101.44C630.417 101.369 629.803 101.505 629.395 101.846C629.007 102.192 628.109 102.726 626.701 103.449C625.312 104.187 623.187 104.161 620.326 103.372C617.464 102.582 614.77 102.184 612.244 102.177C609.739 102.189 608.298 101.969 607.923 101.516L605.682 103.652C604.752 104.539 604.201 105.42 604.028 106.297C614.431 108.174 624.816 108.174 635.184 106.297C635.029 105.42 634.486 104.539 633.557 103.652L631.236 101.44Z" fill="#518058"/>
<path d="M626.141 88.0109L627.181 87.019C628.39 85.8491 628.39 84.6792 627.181 83.5092L621.446 78.0666C620.468 77.1171 619.49 76.9305 618.512 77.507L625.127 83.5092C626.336 84.6792 626.345 85.8491 625.154 87.019L624.06 88.0109L628.728 92.4871C630.542 94.2166 630.542 95.9375 628.728 97.65L626.994 99.3286L631.502 103.652C633.423 105.483 633.699 107.306 632.329 109.12L632.409 109.502C633.067 109.4 633.734 109.273 634.41 109.12C635.761 107.306 635.477 105.483 633.556 103.652L629.048 99.3286L630.809 97.65C632.623 95.9375 632.623 94.2166 630.809 92.4871L626.141 88.0109Z" fill="black" fill-opacity="0.2"/>
<path d="M623.82 110.468C623.394 110.502 622.967 110.519 622.54 110.519C622.273 110.519 622.015 110.519 621.766 110.519C619.775 110.587 617.792 110.57 615.818 110.468V111.384C617.792 111.469 619.775 111.494 621.766 111.46C622.015 111.46 622.273 111.46 622.54 111.46V113.062C622.54 114.656 621.731 115.47 620.113 115.504H621.206C622.949 115.504 623.82 114.69 623.82 113.062V110.468Z" fill="black" fill-opacity="0.2"/>
<path d="M623.82 110.468C626.683 110.282 629.546 109.96 632.409 109.502C633.067 109.4 633.734 109.273 634.41 109.12C635.762 107.306 635.477 105.483 633.556 103.652L629.049 99.3286L630.809 97.65C632.623 95.9375 632.623 94.2166 630.809 92.4871L626.141 88.0109L627.181 87.019C628.391 85.8491 628.391 84.6792 627.181 83.5092L621.446 78.0666C620.468 77.1171 619.49 76.9305 618.512 77.507C618.263 77.6596 618.032 77.8377 617.819 78.0411L612.057 83.5092C610.865 84.6792 610.865 85.8491 612.057 87.019L613.124 88.0109L608.483 92.4617C606.651 94.2081 606.642 95.9375 608.456 97.65L610.243 99.3286L605.682 103.652C603.761 105.483 603.486 107.306 604.855 109.12C608.5 109.832 612.155 110.282 615.818 110.468C618.628 110.638 621.295 110.638 623.82 110.468ZM623.82 110.468V113.062C623.82 114.69 622.949 115.504 621.206 115.504H618.405C616.681 115.504 615.818 114.69 615.818 113.062V110.468" stroke="black" stroke-width="2" stroke-linecap="round" stroke-linejoin="round"/>
<path d="M349.348 132.64C356.043 132.182 362.738 131.392 369.433 130.269C370.971 130.02 372.531 129.708 374.111 129.334C377.271 124.884 376.606 120.414 372.115 115.923L361.573 105.319L365.69 101.202C369.932 97.0025 369.932 92.7818 365.69 88.5403L354.775 77.5622L357.207 75.1296C360.035 72.2603 360.035 69.391 357.207 66.5218L343.797 53.1734C341.509 50.8448 339.222 50.3873 336.935 51.8012C336.353 52.1754 335.812 52.6121 335.313 53.1111L321.84 66.5218C319.054 69.391 319.054 72.2603 321.84 75.1296L324.335 77.5622L313.482 88.4779C309.199 92.761 309.178 97.0025 313.42 101.202L317.599 105.319L306.933 115.923C302.442 120.414 301.797 124.884 304.999 129.334C313.524 131.08 322.069 132.182 330.635 132.64C337.206 133.055 343.443 133.055 349.348 132.64V139.002C349.348 142.994 347.31 144.99 343.235 144.99H336.686C332.652 144.99 330.635 142.994 330.635 139.002V132.64" fill="white"/>
<path d="M361.039 141.017C355.041 139.907 347.797 139.352 339.305 139.352C330.813 139.352 323.568 139.907 317.571 141.017C311.573 142.169 308.574 143.535 308.574 145.114C308.574 146.693 311.573 148.038 317.571 149.148C323.568 150.3 330.813 150.876 339.305 150.876C347.797 150.876 355.041 150.3 361.039 149.148C367.037 148.038 370.036 146.693 370.036 145.114C370.036 143.535 367.037 142.169 361.039 141.017Z" fill="black" fill-opacity="0.0980392"/>
<path d="M330.635 132.64V139.002C330.635 142.994 332.652 144.99 336.686 144.99H343.235C347.31 144.99 349.348 142.994 349.348 139.002V132.64C343.443 133.055 337.205 133.055 330.635 132.64Z" fill="#BB9A83"/>
<path d="M357.207 75.1295C360.035 72.2603 360.035 69.391 357.207 66.5217L347.29 56.6664C348.057 58.4994 347.225 59.2271 344.795 58.8496C342.358 58.5122 339.78 58.5538 337.06 58.9743C334.341 59.434 332.553 58.6647 331.696 56.6664L321.84 66.5217C319.054 69.391 319.054 72.2603 321.84 75.1295L324.335 77.5622C335.17 80.3163 345.317 80.3163 354.775 77.5622L357.207 75.1295ZM360.95 83.7997C358.925 83.7544 356.617 84.2742 354.026 85.3591C350.889 87.1772 346.377 87.5515 340.491 86.4819C336.321 85.5659 331.393 85.7738 325.708 87.1056C320.028 88.4472 317.492 87.3452 318.098 83.7997L313.482 88.4779C309.199 92.761 309.178 97.0025 313.42 101.202L317.599 105.319L317.349 105.569C334.689 107.709 349.514 107.709 361.823 105.569L361.574 105.319L365.69 101.202C369.932 97.0025 369.932 92.7818 365.69 88.5402L360.95 83.7997ZM366.688 110.496C364.773 110.324 363.339 110.657 362.384 111.494C361.475 112.342 359.375 113.652 356.084 115.424C352.835 117.234 347.866 117.171 341.177 115.237C334.484 113.299 328.184 112.322 322.277 112.305C316.419 112.336 313.051 111.795 312.172 110.683L306.933 115.923C304.759 118.097 303.47 120.259 303.065 122.41C327.392 127.013 351.676 127.013 375.92 122.41C375.557 120.259 374.289 118.097 372.115 115.923L366.688 110.496Z" fill="#518058"/>
<path d="M354.775 77.5622L357.207 75.1296C360.035 72.2603 360.035 69.391 357.207 66.5218L343.797 53.1734C341.509 50.8448 339.222 50.3873 336.935 51.8012L352.404 66.5218C355.232 69.391 355.253 72.2603 352.467 75.1296L349.909 77.5622L360.825 88.5403C365.067 92.7818 365.067 97.0025 360.825 101.202L356.771 105.319L367.312 115.923C371.803 120.414 372.448 124.884 369.246 129.334L369.433 130.269C370.971 130.02 372.531 129.708 374.111 129.334C377.271 124.884 376.606 120.414 372.115 115.923L361.574 105.319L365.69 101.202C369.932 97.0025 369.932 92.7818 365.69 88.5403L354.775 77.5622Z" fill="black" fill-opacity="0.2"/>
<path d="M349.348 132.64C348.35 132.723 347.352 132.764 346.354 132.764C345.73 132.764 345.127 132.764 344.545 132.764C339.888 132.931 335.251 132.889 330.635 132.64V134.885C335.251 135.093 339.888 135.155 344.545 135.072C345.127 135.072 345.73 135.072 346.354 135.072V139.002C346.354 142.911 344.462 144.907 340.678 144.99H343.235C347.31 144.99 349.348 142.994 349.348 139.002V132.64Z" fill="black" fill-opacity="0.2"/>
<path d="M349.348 132.64C356.043 132.182 362.738 131.392 369.433 130.269C370.971 130.02 372.531 129.708 374.111 129.334C377.271 124.884 376.606 120.414 372.115 115.923L361.573 105.319L365.69 101.202C369.932 97.0025 369.932 92.7818 365.69 88.5403L354.775 77.5622L357.207 75.1296C360.035 72.2603 360.035 69.391 357.207 66.5218L343.797 53.1734C341.509 50.8448 339.222 50.3873 336.935 51.8012C336.353 52.1754 335.812 52.6121 335.313 53.1111L321.84 66.5218C319.054 69.391 319.054 72.2603 321.84 75.1296L324.335 77.5622L313.482 88.4779C309.199 92.761 309.178 97.0025 313.42 101.202L317.599 105.319L306.933 115.923C302.442 120.414 301.797 124.884 304.999 129.334C313.524 131.08 322.069 132.182 330.635 132.64C337.206 133.055 343.443 133.055 349.348 132.64ZM349.348 132.64V139.002C349.348 142.994 347.31 144.99 343.235 144.99H336.686C332.652 144.99 330.635 142.994 330.635 139.002V132.64" stroke="black" stroke-width="2" stroke-linecap="round" stroke-linejoin="round"/>
</svg>
