<svg xmlns="http://www.w3.org/2000/svg" xmlns:xlink="http://www.w3.org/1999/xlink" viewBox="0 0 66.16 65.18"><defs><style>.cls-1,.cls-3,.cls-4{fill:none;}.cls-2{fill:#1d1d1b;}.cls-3,.cls-4{stroke:#1d1d1b;stroke-linecap:round;stroke-miterlimit:10;}.cls-3{stroke-width:2.91px;}.cls-4{stroke-width:2.61px;}.cls-5{clip-path:url(#clip-path);}</style><clipPath id="clip-path"><rect class="cls-1" x="28" y="54.91" width="24.32" height="10.27"/></clipPath></defs><g id="Layer_2" data-name="Layer 2"><g id="Layer_2-2" data-name="Layer 2"><rect id="Eye" class="cls-2" x="55.37" y="29.81" width="10.79" height="17.9" rx="5.4"/><g id="XEye"><path class="cls-3" d="M1.46,46.09A289.41,289.41,0,0,1,32.54,1.46"/><path class="cls-4" d="M26.93,46S9.43,8.92,5.21,2.05"/></g><g id="Nose"><g class="cls-5"><g class="cls-5"><path class="cls-2" d="M40.18,65.18h0c-6.86-.06-12.93-6.38-12.06-8.77.39-1.07,1.13-1.41,4.19-1.48.65,0,4.29,0,7.89,0s7.24,0,7.89,0c3.06.07,3.8.41,4.19,1.48.87,2.39-5.2,8.71-12.06,8.77"/></g></g></g></g></g></svg>